<svg width="494" height="415" viewBox="0 0 494 415" fill="none" xmlns="http://www.w3.org/2000/svg">
<g filter="url(#filter0_d)">
<rect x="47" y="37" width="370" height="291" fill="white"/>
</g>
<path d="M80.939 298L79.388 295.327H78.233V298H76.715V290.3H79.795C80.5063 290.3 81.1113 290.549 81.61 291.048C82.1087 291.547 82.358 292.148 82.358 292.852C82.358 293.329 82.2223 293.772 81.951 294.183C81.6797 294.586 81.3203 294.891 80.873 295.096L82.578 298H80.939ZM78.233 291.719V293.996H79.795C80.081 293.996 80.3267 293.886 80.532 293.666C80.7373 293.439 80.84 293.167 80.84 292.852C80.84 292.537 80.7373 292.269 80.532 292.049C80.3267 291.829 80.081 291.719 79.795 291.719H78.233ZM84.3255 295.833C84.5162 296.522 85.0332 296.867 85.8765 296.867C86.4192 296.867 86.8299 296.684 87.1085 296.317L88.2525 296.977C87.7099 297.762 86.9105 298.154 85.8545 298.154C84.9452 298.154 84.2155 297.879 83.6655 297.329C83.1155 296.779 82.8405 296.086 82.8405 295.25C82.8405 294.421 83.1119 293.732 83.6545 293.182C84.1972 292.625 84.8939 292.346 85.7445 292.346C86.5512 292.346 87.2149 292.625 87.7355 293.182C88.2635 293.739 88.5275 294.429 88.5275 295.25C88.5275 295.433 88.5092 295.628 88.4725 295.833H84.3255ZM84.3035 294.733H87.1085C87.0279 294.359 86.8592 294.08 86.6025 293.897C86.3532 293.714 86.0672 293.622 85.7445 293.622C85.3632 293.622 85.0479 293.721 84.7985 293.919C84.5492 294.11 84.3842 294.381 84.3035 294.733ZM93.6552 292.5H95.0742V298H93.6552V297.351C93.2298 297.886 92.6322 298.154 91.8622 298.154C91.1288 298.154 90.4982 297.875 89.9702 297.318C89.4495 296.753 89.1892 296.064 89.1892 295.25C89.1892 294.436 89.4495 293.75 89.9702 293.193C90.4982 292.628 91.1288 292.346 91.8622 292.346C92.6322 292.346 93.2298 292.614 93.6552 293.149V292.5ZM91.0372 296.372C91.3232 296.658 91.6862 296.801 92.1262 296.801C92.5662 296.801 92.9292 296.658 93.2152 296.372C93.5085 296.079 93.6552 295.705 93.6552 295.25C93.6552 294.795 93.5085 294.425 93.2152 294.139C92.9292 293.846 92.5662 293.699 92.1262 293.699C91.6862 293.699 91.3232 293.846 91.0372 294.139C90.7512 294.425 90.6082 294.795 90.6082 295.25C90.6082 295.705 90.7512 296.079 91.0372 296.372ZM100.53 290.3H101.949V298H100.53V297.351C100.112 297.886 99.5179 298.154 98.7479 298.154C98.0072 298.154 97.3729 297.875 96.8449 297.318C96.3242 296.753 96.0639 296.064 96.0639 295.25C96.0639 294.436 96.3242 293.75 96.8449 293.193C97.3729 292.628 98.0072 292.346 98.7479 292.346C99.5179 292.346 100.112 292.614 100.53 293.149V290.3ZM97.9119 296.372C98.2052 296.658 98.5719 296.801 99.0119 296.801C99.4519 296.801 99.8149 296.658 100.101 296.372C100.387 296.079 100.53 295.705 100.53 295.25C100.53 294.795 100.387 294.425 100.101 294.139C99.8149 293.846 99.4519 293.699 99.0119 293.699C98.5719 293.699 98.2052 293.846 97.9119 294.139C97.6259 294.425 97.4829 294.795 97.4829 295.25C97.4829 295.705 97.6259 296.079 97.9119 296.372ZM113.598 290.3V298H112.091V293.006L109.924 296.581H109.748L107.581 293.017V298H106.063V290.3H107.625L109.836 293.941L112.036 290.3H113.598ZM119.652 297.318C119.088 297.875 118.398 298.154 117.584 298.154C116.77 298.154 116.081 297.875 115.516 297.318C114.959 296.753 114.68 296.064 114.68 295.25C114.68 294.436 114.959 293.75 115.516 293.193C116.081 292.628 116.77 292.346 117.584 292.346C118.398 292.346 119.088 292.628 119.652 293.193C120.217 293.75 120.499 294.436 120.499 295.25C120.499 296.064 120.217 296.753 119.652 297.318ZM116.517 296.339C116.803 296.625 117.159 296.768 117.584 296.768C118.01 296.768 118.365 296.625 118.651 296.339C118.937 296.053 119.08 295.69 119.08 295.25C119.08 294.81 118.937 294.447 118.651 294.161C118.365 293.875 118.01 293.732 117.584 293.732C117.159 293.732 116.803 293.875 116.517 294.161C116.239 294.447 116.099 294.81 116.099 295.25C116.099 295.69 116.239 296.053 116.517 296.339ZM122.917 293.446C123.049 293.094 123.265 292.83 123.566 292.654C123.874 292.478 124.215 292.39 124.589 292.39V293.974C124.156 293.923 123.767 294.011 123.423 294.238C123.085 294.465 122.917 294.843 122.917 295.371V298H121.498V292.5H122.917V293.446ZM126.413 295.833C126.604 296.522 127.121 296.867 127.964 296.867C128.507 296.867 128.918 296.684 129.196 296.317L130.34 296.977C129.798 297.762 128.998 298.154 127.942 298.154C127.033 298.154 126.303 297.879 125.753 297.329C125.203 296.779 124.928 296.086 124.928 295.25C124.928 294.421 125.2 293.732 125.742 293.182C126.285 292.625 126.982 292.346 127.832 292.346C128.639 292.346 129.303 292.625 129.823 293.182C130.351 293.739 130.615 294.429 130.615 295.25C130.615 295.433 130.597 295.628 130.56 295.833H126.413ZM126.391 294.733H129.196C129.116 294.359 128.947 294.08 128.69 293.897C128.441 293.714 128.155 293.622 127.832 293.622C127.451 293.622 127.136 293.721 126.886 293.919C126.637 294.11 126.472 294.381 126.391 294.733ZM132.651 297.868C132.467 298.051 132.247 298.143 131.991 298.143C131.734 298.143 131.514 298.051 131.331 297.868C131.147 297.685 131.056 297.465 131.056 297.208C131.056 296.951 131.147 296.731 131.331 296.548C131.514 296.365 131.734 296.273 131.991 296.273C132.247 296.273 132.467 296.365 132.651 296.548C132.834 296.731 132.926 296.951 132.926 297.208C132.926 297.465 132.834 297.685 132.651 297.868ZM135.594 297.868C135.411 298.051 135.191 298.143 134.934 298.143C134.677 298.143 134.457 298.051 134.274 297.868C134.091 297.685 133.999 297.465 133.999 297.208C133.999 296.951 134.091 296.731 134.274 296.548C134.457 296.365 134.677 296.273 134.934 296.273C135.191 296.273 135.411 296.365 135.594 296.548C135.777 296.731 135.869 296.951 135.869 297.208C135.869 297.465 135.777 297.685 135.594 297.868ZM138.537 297.868C138.354 298.051 138.134 298.143 137.877 298.143C137.621 298.143 137.401 298.051 137.217 297.868C137.034 297.685 136.942 297.465 136.942 297.208C136.942 296.951 137.034 296.731 137.217 296.548C137.401 296.365 137.621 296.273 137.877 296.273C138.134 296.273 138.354 296.365 138.537 296.548C138.721 296.731 138.812 296.951 138.812 297.208C138.812 297.465 138.721 297.685 138.537 297.868Z" fill="black"/>
<path d="M78.25 234.01H83.05V235H77.2V224.5H78.25V234.01ZM87.4877 227.32C88.5977 227.32 89.4927 227.715 90.1727 228.505C90.8627 229.285 91.2077 230.21 91.2077 231.28C91.2077 231.39 91.1977 231.545 91.1777 231.745H84.5927C84.6927 232.505 85.0127 233.11 85.5527 233.56C86.1027 234 86.7777 234.22 87.5777 234.22C88.1477 234.22 88.6377 234.105 89.0477 233.875C89.4677 233.635 89.7827 233.325 89.9927 232.945L90.8627 233.455C90.5327 233.985 90.0827 234.405 89.5127 234.715C88.9427 235.025 88.2927 235.18 87.5627 235.18C86.3827 235.18 85.4227 234.81 84.6827 234.07C83.9427 233.33 83.5727 232.39 83.5727 231.25C83.5727 230.13 83.9377 229.195 84.6677 228.445C85.3977 227.695 86.3377 227.32 87.4877 227.32ZM87.4877 228.28C86.7077 228.28 86.0527 228.515 85.5227 228.985C85.0027 229.445 84.6927 230.045 84.5927 230.785H90.1877C90.0877 229.995 89.7827 229.38 89.2727 228.94C88.7627 228.5 88.1677 228.28 87.4877 228.28ZM97.8895 227.5H98.9395L95.8645 235H94.6645L91.5895 227.5H92.6395L95.2645 233.965L97.8895 227.5ZM103.308 227.32C104.418 227.32 105.313 227.715 105.993 228.505C106.683 229.285 107.028 230.21 107.028 231.28C107.028 231.39 107.018 231.545 106.998 231.745H100.413C100.513 232.505 100.833 233.11 101.373 233.56C101.923 234 102.598 234.22 103.398 234.22C103.968 234.22 104.458 234.105 104.868 233.875C105.288 233.635 105.603 233.325 105.813 232.945L106.683 233.455C106.353 233.985 105.903 234.405 105.333 234.715C104.763 235.025 104.113 235.18 103.383 235.18C102.203 235.18 101.243 234.81 100.503 234.07C99.763 233.33 99.393 232.39 99.393 231.25C99.393 230.13 99.758 229.195 100.488 228.445C101.218 227.695 102.158 227.32 103.308 227.32ZM103.308 228.28C102.528 228.28 101.873 228.515 101.343 228.985C100.823 229.445 100.513 230.045 100.413 230.785H106.008C105.908 229.995 105.603 229.38 105.093 228.94C104.583 228.5 103.988 228.28 103.308 228.28ZM109.593 228.745C110.053 227.835 110.843 227.38 111.963 227.38V228.34C111.283 228.34 110.718 228.54 110.268 228.94C109.818 229.34 109.593 229.97 109.593 230.83V235H108.603V227.5H109.593V228.745ZM119.315 227.5H120.305V235H119.315V233.53C118.625 234.63 117.615 235.18 116.285 235.18C115.215 235.18 114.3 234.8 113.54 234.04C112.79 233.28 112.415 232.35 112.415 231.25C112.415 230.15 112.79 229.22 113.54 228.46C114.3 227.7 115.215 227.32 116.285 227.32C117.615 227.32 118.625 227.87 119.315 228.97V227.5ZM114.26 233.365C114.83 233.935 115.53 234.22 116.36 234.22C117.19 234.22 117.89 233.935 118.46 233.365C119.03 232.785 119.315 232.08 119.315 231.25C119.315 230.42 119.03 229.72 118.46 229.15C117.89 228.57 117.19 228.28 116.36 228.28C115.53 228.28 114.83 228.57 114.26 229.15C113.69 229.72 113.405 230.42 113.405 231.25C113.405 232.08 113.69 232.785 114.26 233.365ZM128.852 227.5H129.842V234.7C129.842 235.78 129.472 236.63 128.732 237.25C127.992 237.87 127.107 238.18 126.077 238.18C124.317 238.18 123.132 237.57 122.522 236.35L123.392 235.855C123.842 236.765 124.737 237.22 126.077 237.22C126.937 237.22 127.612 236.99 128.102 236.53C128.602 236.08 128.852 235.47 128.852 234.7V233.53C128.162 234.63 127.152 235.18 125.822 235.18C124.752 235.18 123.837 234.8 123.077 234.04C122.327 233.28 121.952 232.35 121.952 231.25C121.952 230.15 122.327 229.22 123.077 228.46C123.837 227.7 124.752 227.32 125.822 227.32C127.152 227.32 128.162 227.87 128.852 228.97V227.5ZM123.797 233.365C124.367 233.935 125.067 234.22 125.897 234.22C126.727 234.22 127.427 233.935 127.997 233.365C128.567 232.785 128.852 232.08 128.852 231.25C128.852 230.42 128.567 229.72 127.997 229.15C127.427 228.57 126.727 228.28 125.897 228.28C125.067 228.28 124.367 228.57 123.797 229.15C123.227 229.72 122.942 230.42 122.942 231.25C122.942 232.08 123.227 232.785 123.797 233.365ZM135.403 227.32C136.513 227.32 137.408 227.715 138.088 228.505C138.778 229.285 139.123 230.21 139.123 231.28C139.123 231.39 139.113 231.545 139.093 231.745H132.508C132.608 232.505 132.928 233.11 133.468 233.56C134.018 234 134.693 234.22 135.493 234.22C136.063 234.22 136.553 234.105 136.963 233.875C137.383 233.635 137.698 233.325 137.908 232.945L138.778 233.455C138.448 233.985 137.998 234.405 137.428 234.715C136.858 235.025 136.208 235.18 135.478 235.18C134.298 235.18 133.338 234.81 132.598 234.07C131.858 233.33 131.488 232.39 131.488 231.25C131.488 230.13 131.853 229.195 132.583 228.445C133.313 227.695 134.253 227.32 135.403 227.32ZM135.403 228.28C134.623 228.28 133.968 228.515 133.438 228.985C132.918 229.445 132.608 230.045 132.508 230.785H138.103C138.003 229.995 137.698 229.38 137.188 228.94C136.678 228.5 136.083 228.28 135.403 228.28ZM150.897 227.5H151.887V235H150.897V233.53C150.207 234.63 149.197 235.18 147.867 235.18C146.797 235.18 145.882 234.8 145.122 234.04C144.372 233.28 143.997 232.35 143.997 231.25C143.997 230.15 144.372 229.22 145.122 228.46C145.882 227.7 146.797 227.32 147.867 227.32C149.197 227.32 150.207 227.87 150.897 228.97V227.5ZM145.842 233.365C146.412 233.935 147.112 234.22 147.942 234.22C148.772 234.22 149.472 233.935 150.042 233.365C150.612 232.785 150.897 232.08 150.897 231.25C150.897 230.42 150.612 229.72 150.042 229.15C149.472 228.57 148.772 228.28 147.942 228.28C147.112 228.28 146.412 228.57 145.842 229.15C145.272 229.72 144.987 230.42 144.987 231.25C144.987 232.08 145.272 232.785 145.842 233.365ZM160.434 227.5H161.424V234.7C161.424 235.78 161.054 236.63 160.314 237.25C159.574 237.87 158.689 238.18 157.659 238.18C155.899 238.18 154.714 237.57 154.104 236.35L154.974 235.855C155.424 236.765 156.319 237.22 157.659 237.22C158.519 237.22 159.194 236.99 159.684 236.53C160.184 236.08 160.434 235.47 160.434 234.7V233.53C159.744 234.63 158.734 235.18 157.404 235.18C156.334 235.18 155.419 234.8 154.659 234.04C153.909 233.28 153.534 232.35 153.534 231.25C153.534 230.15 153.909 229.22 154.659 228.46C155.419 227.7 156.334 227.32 157.404 227.32C158.734 227.32 159.744 227.87 160.434 228.97V227.5ZM155.379 233.365C155.949 233.935 156.649 234.22 157.479 234.22C158.309 234.22 159.009 233.935 159.579 233.365C160.149 232.785 160.434 232.08 160.434 231.25C160.434 230.42 160.149 229.72 159.579 229.15C159.009 228.57 158.309 228.28 157.479 228.28C156.649 228.28 155.949 228.57 155.379 229.15C154.809 229.72 154.524 230.42 154.524 231.25C154.524 232.08 154.809 232.785 155.379 233.365ZM164.525 225.7C164.385 225.84 164.215 225.91 164.015 225.91C163.815 225.91 163.645 225.84 163.505 225.7C163.365 225.56 163.295 225.39 163.295 225.19C163.295 224.99 163.365 224.82 163.505 224.68C163.645 224.54 163.815 224.47 164.015 224.47C164.215 224.47 164.385 224.54 164.525 224.68C164.665 224.82 164.735 224.99 164.735 225.19C164.735 225.39 164.665 225.56 164.525 225.7ZM163.52 235V227.5H164.51V235H163.52ZM166.611 235V224.05H167.601V235H166.611ZM173.166 227.32C174.276 227.32 175.171 227.715 175.851 228.505C176.541 229.285 176.886 230.21 176.886 231.28C176.886 231.39 176.876 231.545 176.856 231.745H170.271C170.371 232.505 170.691 233.11 171.231 233.56C171.781 234 172.456 234.22 173.256 234.22C173.826 234.22 174.316 234.105 174.726 233.875C175.146 233.635 175.461 233.325 175.671 232.945L176.541 233.455C176.211 233.985 175.761 234.405 175.191 234.715C174.621 235.025 173.971 235.18 173.241 235.18C172.061 235.18 171.101 234.81 170.361 234.07C169.621 233.33 169.251 232.39 169.251 231.25C169.251 230.13 169.616 229.195 170.346 228.445C171.076 227.695 172.016 227.32 173.166 227.32ZM173.166 228.28C172.386 228.28 171.731 228.515 171.201 228.985C170.681 229.445 170.371 230.045 170.271 230.785H175.866C175.766 229.995 175.461 229.38 174.951 228.94C174.441 228.5 173.846 228.28 173.166 228.28ZM185.961 225.28C185.231 225.22 184.686 225.345 184.326 225.655C183.976 225.965 183.801 226.48 183.801 227.2V227.5H185.961V228.46H183.801V235H182.811V228.46H181.536V227.5H182.811V227.2C182.811 226.22 183.081 225.48 183.621 224.98C184.171 224.47 184.951 224.25 185.961 224.32V225.28ZM188.006 228.745C188.466 227.835 189.256 227.38 190.376 227.38V228.34C189.696 228.34 189.131 228.54 188.681 228.94C188.231 229.34 188.006 229.97 188.006 230.83V235H187.016V227.5H188.006V228.745ZM197.729 227.5H198.719V235H197.729V233.53C197.039 234.63 196.029 235.18 194.699 235.18C193.629 235.18 192.714 234.8 191.954 234.04C191.204 233.28 190.829 232.35 190.829 231.25C190.829 230.15 191.204 229.22 191.954 228.46C192.714 227.7 193.629 227.32 194.699 227.32C196.029 227.32 197.039 227.87 197.729 228.97V227.5ZM192.674 233.365C193.244 233.935 193.944 234.22 194.774 234.22C195.604 234.22 196.304 233.935 196.874 233.365C197.444 232.785 197.729 232.08 197.729 231.25C197.729 230.42 197.444 229.72 196.874 229.15C196.304 228.57 195.604 228.28 194.774 228.28C193.944 228.28 193.244 228.57 192.674 229.15C192.104 229.72 191.819 230.42 191.819 231.25C191.819 232.08 192.104 232.785 192.674 233.365ZM208.81 227.32C209.65 227.32 210.325 227.59 210.835 228.13C211.355 228.67 211.615 229.4 211.615 230.32V235H210.625V230.32C210.625 229.67 210.455 229.17 210.115 228.82C209.785 228.46 209.345 228.28 208.795 228.28C208.175 228.28 207.67 228.49 207.28 228.91C206.9 229.32 206.71 229.965 206.71 230.845V235H205.72V230.32C205.72 229.66 205.56 229.155 205.24 228.805C204.93 228.455 204.505 228.28 203.965 228.28C203.365 228.28 202.855 228.49 202.435 228.91C202.015 229.33 201.805 229.975 201.805 230.845V235H200.815V227.5H201.805V228.595C202.345 227.745 203.11 227.32 204.1 227.32C205.18 227.32 205.94 227.775 206.38 228.685C206.92 227.775 207.73 227.32 208.81 227.32ZM216.994 227.32C218.104 227.32 218.999 227.715 219.679 228.505C220.369 229.285 220.714 230.21 220.714 231.28C220.714 231.39 220.704 231.545 220.684 231.745H214.099C214.199 232.505 214.519 233.11 215.059 233.56C215.609 234 216.284 234.22 217.084 234.22C217.654 234.22 218.144 234.105 218.554 233.875C218.974 233.635 219.289 233.325 219.499 232.945L220.369 233.455C220.039 233.985 219.589 234.405 219.019 234.715C218.449 235.025 217.799 235.18 217.069 235.18C215.889 235.18 214.929 234.81 214.189 234.07C213.449 233.33 213.079 232.39 213.079 231.25C213.079 230.13 213.444 229.195 214.174 228.445C214.904 227.695 215.844 227.32 216.994 227.32ZM216.994 228.28C216.214 228.28 215.559 228.515 215.029 228.985C214.509 229.445 214.199 230.045 214.099 230.785H219.694C219.594 229.995 219.289 229.38 218.779 228.94C218.269 228.5 217.674 228.28 216.994 228.28ZM231.026 227.5H232.046L229.736 235H228.656L226.721 228.955L224.786 235H223.706L221.396 227.5H222.416L224.261 233.725L226.226 227.5H227.216L229.181 233.725L231.026 227.5ZM239.531 234.055C238.771 234.805 237.841 235.18 236.741 235.18C235.641 235.18 234.706 234.805 233.936 234.055C233.176 233.295 232.796 232.36 232.796 231.25C232.796 230.14 233.176 229.21 233.936 228.46C234.706 227.7 235.641 227.32 236.741 227.32C237.841 227.32 238.771 227.7 239.531 228.46C240.301 229.21 240.686 230.14 240.686 231.25C240.686 232.36 240.301 233.295 239.531 234.055ZM234.641 233.365C235.211 233.935 235.911 234.22 236.741 234.22C237.571 234.22 238.271 233.935 238.841 233.365C239.411 232.785 239.696 232.08 239.696 231.25C239.696 230.42 239.411 229.72 238.841 229.15C238.271 228.57 237.571 228.28 236.741 228.28C235.911 228.28 235.211 228.57 234.641 229.15C234.071 229.72 233.786 230.42 233.786 231.25C233.786 232.08 234.071 232.785 234.641 233.365ZM243.333 228.745C243.793 227.835 244.583 227.38 245.703 227.38V228.34C245.023 228.34 244.458 228.54 244.008 228.94C243.558 229.34 243.333 229.97 243.333 230.83V235H242.343V227.5H243.333V228.745ZM253.12 235H251.8L248.05 231.385V235H247.06V224.5H248.05V230.815L251.62 227.5H252.97L249.1 231.1L253.12 235ZM254.651 229.465C254.651 229.805 254.801 230.075 255.101 230.275C255.401 230.475 255.766 230.63 256.196 230.74C256.626 230.85 257.056 230.975 257.486 231.115C257.916 231.245 258.281 231.47 258.581 231.79C258.881 232.1 259.031 232.51 259.031 233.02C259.031 233.66 258.776 234.18 258.266 234.58C257.766 234.98 257.116 235.18 256.316 235.18C255.596 235.18 254.981 235.02 254.471 234.7C253.971 234.38 253.621 233.965 253.421 233.455L254.261 232.96C254.401 233.35 254.651 233.66 255.011 233.89C255.381 234.11 255.816 234.22 256.316 234.22C256.806 234.22 257.216 234.125 257.546 233.935C257.876 233.735 258.041 233.43 258.041 233.02C258.041 232.68 257.891 232.41 257.591 232.21C257.291 232.01 256.926 231.855 256.496 231.745C256.066 231.635 255.636 231.515 255.206 231.385C254.776 231.245 254.411 231.02 254.111 230.71C253.811 230.39 253.661 229.975 253.661 229.465C253.661 228.855 253.901 228.345 254.381 227.935C254.871 227.525 255.486 227.32 256.226 227.32C256.836 227.32 257.371 227.46 257.831 227.74C258.291 228.01 258.631 228.38 258.851 228.85L258.026 229.33C257.736 228.63 257.136 228.28 256.226 228.28C255.796 228.28 255.426 228.385 255.116 228.595C254.806 228.795 254.651 229.085 254.651 229.465ZM268.408 228.46H266.248V233.005C266.248 233.415 266.328 233.71 266.488 233.89C266.648 234.06 266.888 234.15 267.208 234.16C267.528 234.16 267.928 234.15 268.408 234.13V235C267.358 235.16 266.568 235.085 266.038 234.775C265.518 234.465 265.258 233.875 265.258 233.005V228.46H263.683V227.5H265.258V225.7L266.248 225.4V227.5H268.408V228.46ZM275.889 234.055C275.129 234.805 274.199 235.18 273.099 235.18C271.999 235.18 271.064 234.805 270.294 234.055C269.534 233.295 269.154 232.36 269.154 231.25C269.154 230.14 269.534 229.21 270.294 228.46C271.064 227.7 271.999 227.32 273.099 227.32C274.199 227.32 275.129 227.7 275.889 228.46C276.659 229.21 277.044 230.14 277.044 231.25C277.044 232.36 276.659 233.295 275.889 234.055ZM270.999 233.365C271.569 233.935 272.269 234.22 273.099 234.22C273.929 234.22 274.629 233.935 275.199 233.365C275.769 232.785 276.054 232.08 276.054 231.25C276.054 230.42 275.769 229.72 275.199 229.15C274.629 228.57 273.929 228.28 273.099 228.28C272.269 228.28 271.569 228.57 270.999 229.15C270.429 229.72 270.144 230.42 270.144 231.25C270.144 232.08 270.429 232.785 270.999 233.365ZM286.47 227.32C287.54 227.32 288.45 227.7 289.2 228.46C289.96 229.22 290.34 230.15 290.34 231.25C290.34 232.35 289.96 233.28 289.2 234.04C288.45 234.8 287.54 235.18 286.47 235.18C285.14 235.18 284.13 234.63 283.44 233.53V238H282.45V227.5H283.44V228.97C284.13 227.87 285.14 227.32 286.47 227.32ZM284.295 233.365C284.865 233.935 285.565 234.22 286.395 234.22C287.225 234.22 287.925 233.935 288.495 233.365C289.065 232.785 289.35 232.08 289.35 231.25C289.35 230.42 289.065 229.72 288.495 229.15C287.925 228.57 287.225 228.28 286.395 228.28C285.565 228.28 284.865 228.57 284.295 229.15C283.725 229.72 283.44 230.42 283.44 231.25C283.44 232.08 283.725 232.785 284.295 233.365ZM292.977 228.745C293.437 227.835 294.227 227.38 295.347 227.38V228.34C294.667 228.34 294.102 228.54 293.652 228.94C293.202 229.34 292.977 229.97 292.977 230.83V235H291.987V227.5H292.977V228.745ZM302.534 234.055C301.774 234.805 300.844 235.18 299.744 235.18C298.644 235.18 297.709 234.805 296.939 234.055C296.179 233.295 295.799 232.36 295.799 231.25C295.799 230.14 296.179 229.21 296.939 228.46C297.709 227.7 298.644 227.32 299.744 227.32C300.844 227.32 301.774 227.7 302.534 228.46C303.304 229.21 303.689 230.14 303.689 231.25C303.689 232.36 303.304 233.295 302.534 234.055ZM297.644 233.365C298.214 233.935 298.914 234.22 299.744 234.22C300.574 234.22 301.274 233.935 301.844 233.365C302.414 232.785 302.699 232.08 302.699 231.25C302.699 230.42 302.414 229.72 301.844 229.15C301.274 228.57 300.574 228.28 299.744 228.28C298.914 228.28 298.214 228.57 297.644 229.15C297.074 229.72 296.789 230.42 296.789 231.25C296.789 232.08 297.074 232.785 297.644 233.365ZM310.453 227.5H311.503L308.428 235H307.228L304.153 227.5H305.203L307.828 233.965L310.453 227.5ZM313.704 225.7C313.564 225.84 313.394 225.91 313.194 225.91C312.994 225.91 312.824 225.84 312.684 225.7C312.544 225.56 312.474 225.39 312.474 225.19C312.474 224.99 312.544 224.82 312.684 224.68C312.824 224.54 312.994 224.47 313.194 224.47C313.394 224.47 313.564 224.54 313.704 224.68C313.844 224.82 313.914 224.99 313.914 225.19C313.914 225.39 313.844 225.56 313.704 225.7ZM312.699 235V227.5H313.689V235H312.699ZM322.24 224.5H323.23V235H322.24V233.53C321.55 234.63 320.54 235.18 319.21 235.18C318.14 235.18 317.225 234.8 316.465 234.04C315.715 233.28 315.34 232.35 315.34 231.25C315.34 230.15 315.715 229.22 316.465 228.46C317.225 227.7 318.14 227.32 319.21 227.32C320.54 227.32 321.55 227.87 322.24 228.97V224.5ZM317.185 233.365C317.755 233.935 318.455 234.22 319.285 234.22C320.115 234.22 320.815 233.935 321.385 233.365C321.955 232.785 322.24 232.08 322.24 231.25C322.24 230.42 321.955 229.72 321.385 229.15C320.815 228.57 320.115 228.28 319.285 228.28C318.455 228.28 317.755 228.57 317.185 229.15C316.615 229.72 316.33 230.42 316.33 231.25C316.33 232.08 316.615 232.785 317.185 233.365ZM328.791 227.32C329.901 227.32 330.796 227.715 331.476 228.505C332.166 229.285 332.511 230.21 332.511 231.28C332.511 231.39 332.501 231.545 332.481 231.745H325.896C325.996 232.505 326.316 233.11 326.856 233.56C327.406 234 328.081 234.22 328.881 234.22C329.451 234.22 329.941 234.105 330.351 233.875C330.771 233.635 331.086 233.325 331.296 232.945L332.166 233.455C331.836 233.985 331.386 234.405 330.816 234.715C330.246 235.025 329.596 235.18 328.866 235.18C327.686 235.18 326.726 234.81 325.986 234.07C325.246 233.33 324.876 232.39 324.876 231.25C324.876 230.13 325.241 229.195 325.971 228.445C326.701 227.695 327.641 227.32 328.791 227.32ZM328.791 228.28C328.011 228.28 327.356 228.515 326.826 228.985C326.306 229.445 325.996 230.045 325.896 230.785H331.491C331.391 229.995 331.086 229.38 330.576 228.94C330.066 228.5 329.471 228.28 328.791 228.28ZM344.286 227.5H345.276V235H344.286V233.53C343.596 234.63 342.586 235.18 341.256 235.18C340.186 235.18 339.271 234.8 338.511 234.04C337.761 233.28 337.386 232.35 337.386 231.25C337.386 230.15 337.761 229.22 338.511 228.46C339.271 227.7 340.186 227.32 341.256 227.32C342.586 227.32 343.596 227.87 344.286 228.97V227.5ZM339.231 233.365C339.801 233.935 340.501 234.22 341.331 234.22C342.161 234.22 342.861 233.935 343.431 233.365C344.001 232.785 344.286 232.08 344.286 231.25C344.286 230.42 344.001 229.72 343.431 229.15C342.861 228.57 342.161 228.28 341.331 228.28C340.501 228.28 339.801 228.57 339.231 229.15C338.661 229.72 338.376 230.42 338.376 231.25C338.376 232.08 338.661 232.785 339.231 233.365ZM78.04 251.745C78.5 250.835 79.29 250.38 80.41 250.38V251.34C79.73 251.34 79.165 251.54 78.715 251.94C78.265 252.34 78.04 252.97 78.04 253.83V258H77.05V250.5H78.04V251.745ZM87.5977 257.055C86.8377 257.805 85.9077 258.18 84.8077 258.18C83.7077 258.18 82.7727 257.805 82.0027 257.055C81.2427 256.295 80.8627 255.36 80.8627 254.25C80.8627 253.14 81.2427 252.21 82.0027 251.46C82.7727 250.7 83.7077 250.32 84.8077 250.32C85.9077 250.32 86.8377 250.7 87.5977 251.46C88.3677 252.21 88.7527 253.14 88.7527 254.25C88.7527 255.36 88.3677 256.295 87.5977 257.055ZM82.7077 256.365C83.2777 256.935 83.9777 257.22 84.8077 257.22C85.6377 257.22 86.3377 256.935 86.9077 256.365C87.4777 255.785 87.7627 255.08 87.7627 254.25C87.7627 253.42 87.4777 252.72 86.9077 252.15C86.3377 251.57 85.6377 251.28 84.8077 251.28C83.9777 251.28 83.2777 251.57 82.7077 252.15C82.1377 252.72 81.8527 253.42 81.8527 254.25C81.8527 255.08 82.1377 255.785 82.7077 256.365ZM94.4294 250.32C95.4994 250.32 96.4094 250.7 97.1594 251.46C97.9194 252.22 98.2994 253.15 98.2994 254.25C98.2994 255.35 97.9194 256.28 97.1594 257.04C96.4094 257.8 95.4994 258.18 94.4294 258.18C93.0994 258.18 92.0894 257.63 91.3994 256.53V258H90.4094V247.5H91.3994V251.97C92.0894 250.87 93.0994 250.32 94.4294 250.32ZM92.2544 256.365C92.8244 256.935 93.5244 257.22 94.3544 257.22C95.1844 257.22 95.8844 256.935 96.4544 256.365C97.0244 255.785 97.3094 255.08 97.3094 254.25C97.3094 253.42 97.0244 252.72 96.4544 252.15C95.8844 251.57 95.1844 251.28 94.3544 251.28C93.5244 251.28 92.8244 251.57 92.2544 252.15C91.6844 252.72 91.3994 253.42 91.3994 254.25C91.3994 255.08 91.6844 255.785 92.2544 256.365ZM105.226 250.5H106.216V258H105.226V256.83C104.666 257.73 103.826 258.18 102.706 258.18C101.796 258.18 101.076 257.905 100.546 257.355C100.026 256.795 99.7655 256.045 99.7655 255.105V250.5H100.756V255.105C100.756 255.775 100.931 256.295 101.281 256.665C101.641 257.035 102.146 257.22 102.796 257.22C103.516 257.22 104.101 256.995 104.551 256.545C105.001 256.085 105.226 255.38 105.226 254.43V250.5ZM109.09 252.465C109.09 252.805 109.24 253.075 109.54 253.275C109.84 253.475 110.205 253.63 110.635 253.74C111.065 253.85 111.495 253.975 111.925 254.115C112.355 254.245 112.72 254.47 113.02 254.79C113.32 255.1 113.47 255.51 113.47 256.02C113.47 256.66 113.215 257.18 112.705 257.58C112.205 257.98 111.555 258.18 110.755 258.18C110.035 258.18 109.42 258.02 108.91 257.7C108.41 257.38 108.06 256.965 107.86 256.455L108.7 255.96C108.84 256.35 109.09 256.66 109.45 256.89C109.82 257.11 110.255 257.22 110.755 257.22C111.245 257.22 111.655 257.125 111.985 256.935C112.315 256.735 112.48 256.43 112.48 256.02C112.48 255.68 112.33 255.41 112.03 255.21C111.73 255.01 111.365 254.855 110.935 254.745C110.505 254.635 110.075 254.515 109.645 254.385C109.215 254.245 108.85 254.02 108.55 253.71C108.25 253.39 108.1 252.975 108.1 252.465C108.1 251.855 108.34 251.345 108.82 250.935C109.31 250.525 109.925 250.32 110.665 250.32C111.275 250.32 111.81 250.46 112.27 250.74C112.73 251.01 113.07 251.38 113.29 251.85L112.465 252.33C112.175 251.63 111.575 251.28 110.665 251.28C110.235 251.28 109.865 251.385 109.555 251.595C109.245 251.795 109.09 252.085 109.09 252.465ZM118.803 251.46H116.643V256.005C116.643 256.415 116.723 256.71 116.883 256.89C117.043 257.06 117.283 257.15 117.603 257.16C117.923 257.16 118.323 257.15 118.803 257.13V258C117.753 258.16 116.963 258.085 116.433 257.775C115.913 257.465 115.653 256.875 115.653 256.005V251.46H114.078V250.5H115.653V248.7L116.643 248.4V250.5H118.803V251.46ZM124.983 252.465C124.983 252.805 125.133 253.075 125.433 253.275C125.733 253.475 126.098 253.63 126.528 253.74C126.958 253.85 127.388 253.975 127.818 254.115C128.248 254.245 128.613 254.47 128.913 254.79C129.213 255.1 129.363 255.51 129.363 256.02C129.363 256.66 129.108 257.18 128.598 257.58C128.098 257.98 127.448 258.18 126.648 258.18C125.928 258.18 125.313 258.02 124.803 257.7C124.303 257.38 123.953 256.965 123.753 256.455L124.593 255.96C124.733 256.35 124.983 256.66 125.343 256.89C125.713 257.11 126.148 257.22 126.648 257.22C127.138 257.22 127.548 257.125 127.878 256.935C128.208 256.735 128.373 256.43 128.373 256.02C128.373 255.68 128.223 255.41 127.923 255.21C127.623 255.01 127.258 254.855 126.828 254.745C126.398 254.635 125.968 254.515 125.538 254.385C125.108 254.245 124.743 254.02 124.443 253.71C124.143 253.39 123.993 252.975 123.993 252.465C123.993 251.855 124.233 251.345 124.713 250.935C125.203 250.525 125.818 250.32 126.558 250.32C127.168 250.32 127.703 250.46 128.163 250.74C128.623 251.01 128.963 251.38 129.183 251.85L128.358 252.33C128.068 251.63 127.468 251.28 126.558 251.28C126.128 251.28 125.758 251.385 125.448 251.595C125.138 251.795 124.983 252.085 124.983 252.465ZM136.034 250.5H137.084L133.874 258.69C133.584 259.43 133.169 260.01 132.629 260.43C132.099 260.86 131.504 261.05 130.844 261V260.07C131.744 260.17 132.429 259.65 132.899 258.51L133.094 258.045L129.734 250.5H130.784L133.604 256.785L136.034 250.5ZM141.79 250.32C142.7 250.32 143.415 250.6 143.935 251.16C144.465 251.71 144.73 252.455 144.73 253.395V258H143.74V253.395C143.74 252.725 143.56 252.205 143.2 251.835C142.85 251.465 142.35 251.28 141.7 251.28C140.98 251.28 140.395 251.51 139.945 251.97C139.495 252.42 139.27 253.12 139.27 254.07V258H138.28V250.5H139.27V251.67C139.83 250.77 140.67 250.32 141.79 250.32ZM152.93 257.055C152.17 257.805 151.24 258.18 150.14 258.18C149.04 258.18 148.105 257.805 147.335 257.055C146.575 256.295 146.195 255.36 146.195 254.25C146.195 253.14 146.575 252.21 147.335 251.46C148.105 250.7 149.04 250.32 150.14 250.32C151.24 250.32 152.17 250.7 152.93 251.46C153.7 252.21 154.085 253.14 154.085 254.25C154.085 255.36 153.7 256.295 152.93 257.055ZM148.04 256.365C148.61 256.935 149.31 257.22 150.14 257.22C150.97 257.22 151.67 256.935 152.24 256.365C152.81 255.785 153.095 255.08 153.095 254.25C153.095 253.42 152.81 252.72 152.24 252.15C151.67 251.57 150.97 251.28 150.14 251.28C149.31 251.28 148.61 251.57 148.04 252.15C147.47 252.72 147.185 253.42 147.185 254.25C147.185 255.08 147.47 255.785 148.04 256.365ZM159.761 250.32C160.831 250.32 161.741 250.7 162.491 251.46C163.251 252.22 163.631 253.15 163.631 254.25C163.631 255.35 163.251 256.28 162.491 257.04C161.741 257.8 160.831 258.18 159.761 258.18C158.431 258.18 157.421 257.63 156.731 256.53V261H155.741V250.5H156.731V251.97C157.421 250.87 158.431 250.32 159.761 250.32ZM157.586 256.365C158.156 256.935 158.856 257.22 159.686 257.22C160.516 257.22 161.216 256.935 161.786 256.365C162.356 255.785 162.641 255.08 162.641 254.25C162.641 253.42 162.356 252.72 161.786 252.15C161.216 251.57 160.516 251.28 159.686 251.28C158.856 251.28 158.156 251.57 157.586 252.15C157.016 252.72 156.731 253.42 156.731 254.25C156.731 255.08 157.016 255.785 157.586 256.365ZM165.911 252.465C165.911 252.805 166.061 253.075 166.361 253.275C166.661 253.475 167.026 253.63 167.456 253.74C167.886 253.85 168.316 253.975 168.746 254.115C169.176 254.245 169.541 254.47 169.841 254.79C170.141 255.1 170.291 255.51 170.291 256.02C170.291 256.66 170.036 257.18 169.526 257.58C169.026 257.98 168.376 258.18 167.576 258.18C166.856 258.18 166.241 258.02 165.731 257.7C165.231 257.38 164.881 256.965 164.681 256.455L165.521 255.96C165.661 256.35 165.911 256.66 166.271 256.89C166.641 257.11 167.076 257.22 167.576 257.22C168.066 257.22 168.476 257.125 168.806 256.935C169.136 256.735 169.301 256.43 169.301 256.02C169.301 255.68 169.151 255.41 168.851 255.21C168.551 255.01 168.186 254.855 167.756 254.745C167.326 254.635 166.896 254.515 166.466 254.385C166.036 254.245 165.671 254.02 165.371 253.71C165.071 253.39 164.921 252.975 164.921 252.465C164.921 251.855 165.161 251.345 165.641 250.935C166.131 250.525 166.746 250.32 167.486 250.32C168.096 250.32 168.631 250.46 169.091 250.74C169.551 251.01 169.891 251.38 170.111 251.85L169.286 252.33C168.996 251.63 168.396 251.28 167.486 251.28C167.056 251.28 166.686 251.385 166.376 251.595C166.066 251.795 165.911 252.085 165.911 252.465ZM172.874 248.7C172.734 248.84 172.564 248.91 172.364 248.91C172.164 248.91 171.994 248.84 171.854 248.7C171.714 248.56 171.644 248.39 171.644 248.19C171.644 247.99 171.714 247.82 171.854 247.68C171.994 247.54 172.164 247.47 172.364 247.47C172.564 247.47 172.734 247.54 172.874 247.68C173.014 247.82 173.084 247.99 173.084 248.19C173.084 248.39 173.014 248.56 172.874 248.7ZM171.869 258V250.5H172.859V258H171.869ZM175.74 252.465C175.74 252.805 175.89 253.075 176.19 253.275C176.49 253.475 176.855 253.63 177.285 253.74C177.715 253.85 178.145 253.975 178.575 254.115C179.005 254.245 179.37 254.47 179.67 254.79C179.97 255.1 180.12 255.51 180.12 256.02C180.12 256.66 179.865 257.18 179.355 257.58C178.855 257.98 178.205 258.18 177.405 258.18C176.685 258.18 176.07 258.02 175.56 257.7C175.06 257.38 174.71 256.965 174.51 256.455L175.35 255.96C175.49 256.35 175.74 256.66 176.1 256.89C176.47 257.11 176.905 257.22 177.405 257.22C177.895 257.22 178.305 257.125 178.635 256.935C178.965 256.735 179.13 256.43 179.13 256.02C179.13 255.68 178.98 255.41 178.68 255.21C178.38 255.01 178.015 254.855 177.585 254.745C177.155 254.635 176.725 254.515 176.295 254.385C175.865 254.245 175.5 254.02 175.2 253.71C174.9 253.39 174.75 252.975 174.75 252.465C174.75 251.855 174.99 251.345 175.47 250.935C175.96 250.525 176.575 250.32 177.315 250.32C177.925 250.32 178.46 250.46 178.92 250.74C179.38 251.01 179.72 251.38 179.94 251.85L179.115 252.33C178.825 251.63 178.225 251.28 177.315 251.28C176.885 251.28 176.515 251.385 176.205 251.595C175.895 251.795 175.74 252.085 175.74 252.465ZM189.272 248.28C188.542 248.22 187.997 248.345 187.637 248.655C187.287 248.965 187.112 249.48 187.112 250.2V250.5H189.272V251.46H187.112V258H186.122V251.46H184.847V250.5H186.122V250.2C186.122 249.22 186.392 248.48 186.932 247.98C187.482 247.47 188.262 247.25 189.272 247.32V248.28ZM196.157 257.055C195.397 257.805 194.467 258.18 193.367 258.18C192.267 258.18 191.332 257.805 190.562 257.055C189.802 256.295 189.422 255.36 189.422 254.25C189.422 253.14 189.802 252.21 190.562 251.46C191.332 250.7 192.267 250.32 193.367 250.32C194.467 250.32 195.397 250.7 196.157 251.46C196.927 252.21 197.312 253.14 197.312 254.25C197.312 255.36 196.927 256.295 196.157 257.055ZM191.267 256.365C191.837 256.935 192.537 257.22 193.367 257.22C194.197 257.22 194.897 256.935 195.467 256.365C196.037 255.785 196.322 255.08 196.322 254.25C196.322 253.42 196.037 252.72 195.467 252.15C194.897 251.57 194.197 251.28 193.367 251.28C192.537 251.28 191.837 251.57 191.267 252.15C190.697 252.72 190.412 253.42 190.412 254.25C190.412 255.08 190.697 255.785 191.267 256.365ZM199.959 251.745C200.419 250.835 201.209 250.38 202.329 250.38V251.34C201.649 251.34 201.084 251.54 200.634 251.94C200.184 252.34 199.959 252.97 199.959 253.83V258H198.969V250.5H199.959V251.745ZM210.946 250.32C211.856 250.32 212.571 250.6 213.091 251.16C213.621 251.71 213.886 252.455 213.886 253.395V258H212.896V253.395C212.896 252.725 212.716 252.205 212.356 251.835C212.006 251.465 211.506 251.28 210.856 251.28C210.136 251.28 209.551 251.51 209.101 251.97C208.651 252.42 208.426 253.12 208.426 254.07V258H207.436V247.5H208.426V251.67C208.986 250.77 209.826 250.32 210.946 250.32ZM216.805 248.7C216.665 248.84 216.495 248.91 216.295 248.91C216.095 248.91 215.925 248.84 215.785 248.7C215.645 248.56 215.575 248.39 215.575 248.19C215.575 247.99 215.645 247.82 215.785 247.68C215.925 247.54 216.095 247.47 216.295 247.47C216.495 247.47 216.665 247.54 216.805 247.68C216.945 247.82 217.015 247.99 217.015 248.19C217.015 248.39 216.945 248.56 216.805 248.7ZM215.8 258V250.5H216.79V258H215.8ZM225.341 250.5H226.331V257.7C226.331 258.78 225.961 259.63 225.221 260.25C224.481 260.87 223.596 261.18 222.566 261.18C220.806 261.18 219.621 260.57 219.011 259.35L219.881 258.855C220.331 259.765 221.226 260.22 222.566 260.22C223.426 260.22 224.101 259.99 224.591 259.53C225.091 259.08 225.341 258.47 225.341 257.7V256.53C224.651 257.63 223.641 258.18 222.311 258.18C221.241 258.18 220.326 257.8 219.566 257.04C218.816 256.28 218.441 255.35 218.441 254.25C218.441 253.15 218.816 252.22 219.566 251.46C220.326 250.7 221.241 250.32 222.311 250.32C223.641 250.32 224.651 250.87 225.341 251.97V250.5ZM220.286 256.365C220.856 256.935 221.556 257.22 222.386 257.22C223.216 257.22 223.916 256.935 224.486 256.365C225.056 255.785 225.341 255.08 225.341 254.25C225.341 253.42 225.056 252.72 224.486 252.15C223.916 251.57 223.216 251.28 222.386 251.28C221.556 251.28 220.856 251.57 220.286 252.15C219.716 252.72 219.431 253.42 219.431 254.25C219.431 255.08 219.716 255.785 220.286 256.365ZM231.937 250.32C232.847 250.32 233.562 250.6 234.082 251.16C234.612 251.71 234.877 252.455 234.877 253.395V258H233.887V253.395C233.887 252.725 233.707 252.205 233.347 251.835C232.997 251.465 232.497 251.28 231.847 251.28C231.127 251.28 230.542 251.51 230.092 251.97C229.642 252.42 229.417 253.12 229.417 254.07V258H228.427V247.5H229.417V251.67C229.977 250.77 230.817 250.32 231.937 250.32ZM240.541 258V247.05H241.531V258H240.541ZM247.097 250.32C248.207 250.32 249.102 250.715 249.782 251.505C250.472 252.285 250.817 253.21 250.817 254.28C250.817 254.39 250.807 254.545 250.787 254.745H244.202C244.302 255.505 244.622 256.11 245.162 256.56C245.712 257 246.387 257.22 247.187 257.22C247.757 257.22 248.247 257.105 248.657 256.875C249.077 256.635 249.392 256.325 249.602 255.945L250.472 256.455C250.142 256.985 249.692 257.405 249.122 257.715C248.552 258.025 247.902 258.18 247.172 258.18C245.992 258.18 245.032 257.81 244.292 257.07C243.552 256.33 243.182 255.39 243.182 254.25C243.182 253.13 243.547 252.195 244.277 251.445C245.007 250.695 245.947 250.32 247.097 250.32ZM247.097 251.28C246.317 251.28 245.662 251.515 245.132 251.985C244.612 252.445 244.302 253.045 244.202 253.785H249.797C249.697 252.995 249.392 252.38 248.882 251.94C248.372 251.5 247.777 251.28 247.097 251.28ZM257.499 250.5H258.549L255.474 258H254.274L251.199 250.5H252.249L254.874 256.965L257.499 250.5ZM262.917 250.32C264.027 250.32 264.922 250.715 265.602 251.505C266.292 252.285 266.637 253.21 266.637 254.28C266.637 254.39 266.627 254.545 266.607 254.745H260.022C260.122 255.505 260.442 256.11 260.982 256.56C261.532 257 262.207 257.22 263.007 257.22C263.577 257.22 264.067 257.105 264.477 256.875C264.897 256.635 265.212 256.325 265.422 255.945L266.292 256.455C265.962 256.985 265.512 257.405 264.942 257.715C264.372 258.025 263.722 258.18 262.992 258.18C261.812 258.18 260.852 257.81 260.112 257.07C259.372 256.33 259.002 255.39 259.002 254.25C259.002 253.13 259.367 252.195 260.097 251.445C260.827 250.695 261.767 250.32 262.917 250.32ZM262.917 251.28C262.137 251.28 261.482 251.515 260.952 251.985C260.432 252.445 260.122 253.045 260.022 253.785H265.617C265.517 252.995 265.212 252.38 264.702 251.94C264.192 251.5 263.597 251.28 262.917 251.28ZM268.212 258V247.05H269.202V258H268.212ZM281.338 257.055C280.578 257.805 279.648 258.18 278.548 258.18C277.448 258.18 276.513 257.805 275.743 257.055C274.983 256.295 274.603 255.36 274.603 254.25C274.603 253.14 274.983 252.21 275.743 251.46C276.513 250.7 277.448 250.32 278.548 250.32C279.648 250.32 280.578 250.7 281.338 251.46C282.108 252.21 282.493 253.14 282.493 254.25C282.493 255.36 282.108 256.295 281.338 257.055ZM276.448 256.365C277.018 256.935 277.718 257.22 278.548 257.22C279.378 257.22 280.078 256.935 280.648 256.365C281.218 255.785 281.503 255.08 281.503 254.25C281.503 253.42 281.218 252.72 280.648 252.15C280.078 251.57 279.378 251.28 278.548 251.28C277.718 251.28 277.018 251.57 276.448 252.15C275.878 252.72 275.593 253.42 275.593 254.25C275.593 255.08 275.878 255.785 276.448 256.365ZM289.257 250.5H290.307L287.232 258H286.032L282.957 250.5H284.007L286.632 256.965L289.257 250.5ZM294.675 250.32C295.785 250.32 296.68 250.715 297.36 251.505C298.05 252.285 298.395 253.21 298.395 254.28C298.395 254.39 298.385 254.545 298.365 254.745H291.78C291.88 255.505 292.2 256.11 292.74 256.56C293.29 257 293.965 257.22 294.765 257.22C295.335 257.22 295.825 257.105 296.235 256.875C296.655 256.635 296.97 256.325 297.18 255.945L298.05 256.455C297.72 256.985 297.27 257.405 296.7 257.715C296.13 258.025 295.48 258.18 294.75 258.18C293.57 258.18 292.61 257.81 291.87 257.07C291.13 256.33 290.76 255.39 290.76 254.25C290.76 253.13 291.125 252.195 291.855 251.445C292.585 250.695 293.525 250.32 294.675 250.32ZM294.675 251.28C293.895 251.28 293.24 251.515 292.71 251.985C292.19 252.445 291.88 253.045 291.78 253.785H297.375C297.275 252.995 296.97 252.38 296.46 251.94C295.95 251.5 295.355 251.28 294.675 251.28ZM300.96 251.745C301.42 250.835 302.21 250.38 303.33 250.38V251.34C302.65 251.34 302.085 251.54 301.635 251.94C301.185 252.34 300.96 252.97 300.96 253.83V258H299.97V250.5H300.96V251.745ZM310.087 250.5H311.137L308.062 258H306.862L303.787 250.5H304.837L307.462 256.965L310.087 250.5ZM313.338 248.7C313.198 248.84 313.028 248.91 312.828 248.91C312.628 248.91 312.458 248.84 312.318 248.7C312.178 248.56 312.108 248.39 312.108 248.19C312.108 247.99 312.178 247.82 312.318 247.68C312.458 247.54 312.628 247.47 312.828 247.47C313.028 247.47 313.198 247.54 313.338 247.68C313.478 247.82 313.548 247.99 313.548 248.19C313.548 248.39 313.478 248.56 313.338 248.7ZM312.333 258V250.5H313.323V258H312.333ZM318.889 250.32C319.999 250.32 320.894 250.715 321.574 251.505C322.264 252.285 322.609 253.21 322.609 254.28C322.609 254.39 322.599 254.545 322.579 254.745H315.994C316.094 255.505 316.414 256.11 316.954 256.56C317.504 257 318.179 257.22 318.979 257.22C319.549 257.22 320.039 257.105 320.449 256.875C320.869 256.635 321.184 256.325 321.394 255.945L322.264 256.455C321.934 256.985 321.484 257.405 320.914 257.715C320.344 258.025 319.694 258.18 318.964 258.18C317.784 258.18 316.824 257.81 316.084 257.07C315.344 256.33 314.974 255.39 314.974 254.25C314.974 253.13 315.339 252.195 316.069 251.445C316.799 250.695 317.739 250.32 318.889 250.32ZM318.889 251.28C318.109 251.28 317.454 251.515 316.924 251.985C316.404 252.445 316.094 253.045 315.994 253.785H321.589C321.489 252.995 321.184 252.38 320.674 251.94C320.164 251.5 319.569 251.28 318.889 251.28ZM332.921 250.5H333.941L331.631 258H330.551L328.616 251.955L326.681 258H325.601L323.291 250.5H324.311L326.156 256.725L328.121 250.5H329.111L331.076 256.725L332.921 250.5ZM335.76 252.465C335.76 252.805 335.91 253.075 336.21 253.275C336.51 253.475 336.875 253.63 337.305 253.74C337.735 253.85 338.165 253.975 338.595 254.115C339.025 254.245 339.39 254.47 339.69 254.79C339.99 255.1 340.14 255.51 340.14 256.02C340.14 256.66 339.885 257.18 339.375 257.58C338.875 257.98 338.225 258.18 337.425 258.18C336.705 258.18 336.09 258.02 335.58 257.7C335.08 257.38 334.73 256.965 334.53 256.455L335.37 255.96C335.51 256.35 335.76 256.66 336.12 256.89C336.49 257.11 336.925 257.22 337.425 257.22C337.915 257.22 338.325 257.125 338.655 256.935C338.985 256.735 339.15 256.43 339.15 256.02C339.15 255.68 339 255.41 338.7 255.21C338.4 255.01 338.035 254.855 337.605 254.745C337.175 254.635 336.745 254.515 336.315 254.385C335.885 254.245 335.52 254.02 335.22 253.71C334.92 253.39 334.77 252.975 334.77 252.465C334.77 251.855 335.01 251.345 335.49 250.935C335.98 250.525 336.595 250.32 337.335 250.32C337.945 250.32 338.48 250.46 338.94 250.74C339.4 251.01 339.74 251.38 339.96 251.85L339.135 252.33C338.845 251.63 338.245 251.28 337.335 251.28C336.905 251.28 336.535 251.385 336.225 251.595C335.915 251.795 335.76 252.085 335.76 252.465ZM342.905 257.91C342.745 258.07 342.55 258.15 342.32 258.15C342.09 258.15 341.895 258.07 341.735 257.91C341.575 257.75 341.495 257.555 341.495 257.325C341.495 257.095 341.575 256.9 341.735 256.74C341.895 256.58 342.09 256.5 342.32 256.5C342.55 256.5 342.745 256.58 342.905 256.74C343.065 256.9 343.145 257.095 343.145 257.325C343.145 257.555 343.065 257.75 342.905 257.91Z" fill="#666666"/>
<path d="M94.048 184.976V186.272C94.048 188.672 93.28 190.616 91.744 192.104C90.208 193.592 88.224 194.336 85.792 194.336C83.2 194.336 81.048 193.496 79.336 191.816C77.64 190.12 76.792 188.056 76.792 185.624C76.792 183.176 77.632 181.104 79.312 179.408C81.008 177.712 83.104 176.864 85.6 176.864C87.168 176.864 88.6 177.224 89.896 177.944C91.192 178.648 92.2 179.592 92.92 180.776L90.088 182.408C89.688 181.72 89.08 181.16 88.264 180.728C87.464 180.296 86.568 180.08 85.576 180.08C83.976 180.08 82.656 180.608 81.616 181.664C80.592 182.704 80.08 184.024 80.08 185.624C80.08 187.208 80.6 188.52 81.64 189.56C82.696 190.584 84.088 191.096 85.816 191.096C87.096 191.096 88.152 190.816 88.984 190.256C89.832 189.68 90.408 188.896 90.712 187.904H85.624V184.976H94.048ZM98.8758 189.272C99.2918 190.776 100.42 191.528 102.26 191.528C103.444 191.528 104.34 191.128 104.948 190.328L107.444 191.768C106.26 193.48 104.516 194.336 102.212 194.336C100.228 194.336 98.6358 193.736 97.4358 192.536C96.2358 191.336 95.6357 189.824 95.6357 188C95.6357 186.192 96.2278 184.688 97.4118 183.488C98.5958 182.272 100.116 181.664 101.972 181.664C103.732 181.664 105.18 182.272 106.316 183.488C107.468 184.704 108.044 186.208 108.044 188C108.044 188.4 108.004 188.824 107.924 189.272H98.8758ZM98.8278 186.872H104.948C104.772 186.056 104.404 185.448 103.844 185.048C103.3 184.648 102.676 184.448 101.972 184.448C101.14 184.448 100.452 184.664 99.9078 185.096C99.3638 185.512 99.0038 186.104 98.8278 186.872ZM116.718 184.976H114.006V189.968C114.006 190.384 114.11 190.688 114.318 190.88C114.526 191.072 114.83 191.184 115.23 191.216C115.63 191.232 116.126 191.224 116.718 191.192V194C114.59 194.24 113.086 194.04 112.206 193.4C111.342 192.76 110.91 191.616 110.91 189.968V184.976H108.822V182H110.91V179.576L114.006 178.64V182H116.718V184.976ZM141.912 185.6C141.912 187.776 141.224 189.664 139.848 191.264L141.576 193.064L139.224 195.152L137.4 193.256C136.104 193.976 134.696 194.336 133.176 194.336C130.76 194.336 128.704 193.496 127.008 191.816C125.312 190.12 124.464 188.048 124.464 185.6C124.464 183.152 125.312 181.088 127.008 179.408C128.704 177.712 130.76 176.864 133.176 176.864C135.592 176.864 137.648 177.712 139.344 179.408C141.056 181.088 141.912 183.152 141.912 185.6ZM133.176 191.096C133.8 191.096 134.424 190.992 135.048 190.784L132.288 187.904L134.64 185.816L137.592 188.888C138.264 187.928 138.6 186.832 138.6 185.6C138.6 184 138.08 182.68 137.04 181.64C136 180.6 134.712 180.08 133.176 180.08C131.64 180.08 130.352 180.6 129.312 181.64C128.272 182.68 127.752 184 127.752 185.6C127.752 187.184 128.272 188.496 129.312 189.536C130.352 190.576 131.64 191.096 133.176 191.096ZM152.25 182H155.346V194H152.25V192.656C151.498 193.776 150.306 194.336 148.674 194.336C147.362 194.336 146.274 193.896 145.41 193.016C144.562 192.136 144.138 190.92 144.138 189.368V182H147.234V188.984C147.234 189.784 147.45 190.4 147.882 190.832C148.314 191.248 148.89 191.456 149.61 191.456C150.41 191.456 151.05 191.208 151.53 190.712C152.01 190.216 152.25 189.472 152.25 188.48V182ZM167.302 182H170.398V194H167.302V192.584C166.374 193.752 165.07 194.336 163.39 194.336C161.79 194.336 160.414 193.728 159.262 192.512C158.126 191.28 157.558 189.776 157.558 188C157.558 186.224 158.126 184.728 159.262 183.512C160.414 182.28 161.79 181.664 163.39 181.664C165.07 181.664 166.374 182.248 167.302 183.416V182ZM161.59 190.448C162.214 191.072 163.006 191.384 163.966 191.384C164.926 191.384 165.718 191.072 166.342 190.448C166.982 189.808 167.302 188.992 167.302 188C167.302 187.008 166.982 186.2 166.342 185.576C165.718 184.936 164.926 184.616 163.966 184.616C163.006 184.616 162.214 184.936 161.59 185.576C160.966 186.2 160.654 187.008 160.654 188C160.654 188.992 160.966 189.808 161.59 190.448ZM173.205 194V176.48H176.301V194H173.205ZM180.671 180.56C180.159 180.56 179.711 180.376 179.327 180.008C178.959 179.624 178.775 179.176 178.775 178.664C178.775 178.152 178.959 177.704 179.327 177.32C179.711 176.936 180.159 176.744 180.671 176.744C181.199 176.744 181.647 176.936 182.015 177.32C182.399 177.704 182.591 178.152 182.591 178.664C182.591 179.176 182.399 179.624 182.015 180.008C181.647 180.376 181.199 180.56 180.671 180.56ZM179.135 194V182H182.231V194H179.135ZM191.928 184.976H189.216V189.968C189.216 190.384 189.32 190.688 189.528 190.88C189.736 191.072 190.04 191.184 190.44 191.216C190.84 191.232 191.336 191.224 191.928 191.192V194C189.8 194.24 188.296 194.04 187.416 193.4C186.552 192.76 186.12 191.616 186.12 189.968V184.976H184.032V182H186.12V179.576L189.216 178.64V182H191.928V184.976ZM202.193 182H205.505L201.137 194C200.513 195.728 199.681 196.976 198.641 197.744C197.617 198.528 196.337 198.88 194.801 198.8V195.92C195.633 195.936 196.289 195.76 196.769 195.392C197.265 195.024 197.657 194.432 197.945 193.616L193.025 182H196.409L199.529 190.064L202.193 182ZM213.123 177.2H216.435V194H213.123V177.2ZM222.016 189.272C222.432 190.776 223.56 191.528 225.4 191.528C226.584 191.528 227.48 191.128 228.088 190.328L230.584 191.768C229.4 193.48 227.656 194.336 225.352 194.336C223.368 194.336 221.776 193.736 220.576 192.536C219.376 191.336 218.776 189.824 218.776 188C218.776 186.192 219.368 184.688 220.552 183.488C221.736 182.272 223.256 181.664 225.112 181.664C226.872 181.664 228.32 182.272 229.456 183.488C230.608 184.704 231.184 186.208 231.184 188C231.184 188.4 231.144 188.824 231.064 189.272H222.016ZM221.968 186.872H228.088C227.912 186.056 227.544 185.448 226.984 185.048C226.44 184.648 225.816 184.448 225.112 184.448C224.28 184.448 223.592 184.664 223.048 185.096C222.504 185.512 222.144 186.104 221.968 186.872ZM242.372 182H245.468V194H242.372V192.584C241.444 193.752 240.14 194.336 238.46 194.336C236.86 194.336 235.484 193.728 234.332 192.512C233.196 191.28 232.628 189.776 232.628 188C232.628 186.224 233.196 184.728 234.332 183.512C235.484 182.28 236.86 181.664 238.46 181.664C240.14 181.664 241.444 182.248 242.372 183.416V182ZM236.66 190.448C237.284 191.072 238.076 191.384 239.036 191.384C239.996 191.384 240.788 191.072 241.412 190.448C242.052 189.808 242.372 188.992 242.372 188C242.372 187.008 242.052 186.2 241.412 185.576C240.788 184.936 239.996 184.616 239.036 184.616C238.076 184.616 237.284 184.936 236.66 185.576C236.036 186.2 235.724 187.008 235.724 188C235.724 188.992 236.036 189.808 236.66 190.448ZM257.371 177.2H260.467V194H257.371V192.584C256.459 193.752 255.163 194.336 253.483 194.336C251.867 194.336 250.483 193.728 249.331 192.512C248.195 191.28 247.627 189.776 247.627 188C247.627 186.224 248.195 184.728 249.331 183.512C250.483 182.28 251.867 181.664 253.483 181.664C255.163 181.664 256.459 182.248 257.371 183.416V177.2ZM251.659 190.448C252.299 191.072 253.099 191.384 254.059 191.384C255.019 191.384 255.811 191.072 256.435 190.448C257.059 189.808 257.371 188.992 257.371 188C257.371 187.008 257.059 186.2 256.435 185.576C255.811 184.936 255.019 184.616 254.059 184.616C253.099 184.616 252.299 184.936 251.659 185.576C251.035 186.2 250.723 187.008 250.723 188C250.723 188.992 251.035 189.808 251.659 190.448ZM266.061 185.408C266.061 185.728 266.269 185.992 266.685 186.2C267.117 186.392 267.637 186.568 268.245 186.728C268.853 186.872 269.461 187.064 270.069 187.304C270.677 187.528 271.189 187.912 271.605 188.456C272.037 189 272.253 189.68 272.253 190.496C272.253 191.728 271.789 192.68 270.861 193.352C269.949 194.008 268.805 194.336 267.429 194.336C264.965 194.336 263.285 193.384 262.389 191.48L265.077 189.968C265.429 191.008 266.213 191.528 267.429 191.528C268.533 191.528 269.085 191.184 269.085 190.496C269.085 190.176 268.869 189.92 268.437 189.728C268.021 189.52 267.509 189.336 266.901 189.176C266.293 189.016 265.685 188.816 265.077 188.576C264.469 188.336 263.949 187.96 263.517 187.448C263.101 186.92 262.893 186.264 262.893 185.48C262.893 184.296 263.325 183.368 264.189 182.696C265.069 182.008 266.157 181.664 267.453 181.664C268.429 181.664 269.317 181.888 270.117 182.336C270.917 182.768 271.549 183.392 272.013 184.208L269.373 185.648C268.989 184.832 268.349 184.424 267.453 184.424C267.053 184.424 266.717 184.512 266.445 184.688C266.189 184.864 266.061 185.104 266.061 185.408Z" fill="black"/>
<rect x="77" y="77" width="70" height="70" rx="15" fill="#149211" fill-opacity="0.28"/>
<path d="M111.573 123.958C111.452 123.958 111.332 123.937 111.219 123.896C111 123.816 110.814 123.664 110.691 123.466C110.568 123.268 110.516 123.034 110.542 122.802L111.344 115.417H105.208C105.019 115.417 104.833 115.366 104.671 115.268C104.509 115.171 104.376 115.031 104.287 114.864C104.198 114.697 104.157 114.509 104.167 114.32C104.177 114.131 104.238 113.948 104.344 113.792L112.562 101.5C112.692 101.308 112.883 101.164 113.104 101.092C113.325 101.021 113.563 101.025 113.781 101.104C113.991 101.182 114.17 101.325 114.292 101.513C114.414 101.701 114.472 101.922 114.458 102.146L113.656 109.583H119.792C119.981 109.583 120.167 109.634 120.329 109.732C120.491 109.829 120.624 109.969 120.713 110.136C120.802 110.303 120.843 110.491 120.833 110.68C120.823 110.869 120.762 111.051 120.656 111.208L112.437 123.5C112.342 123.641 112.213 123.757 112.062 123.837C111.912 123.917 111.744 123.959 111.573 123.958ZM107.156 113.333H112.5C112.645 113.334 112.789 113.364 112.922 113.424C113.055 113.483 113.173 113.569 113.271 113.677C113.369 113.786 113.443 113.915 113.488 114.055C113.533 114.195 113.548 114.343 113.531 114.49L113.062 118.812L117.844 111.667H112.5C112.353 111.667 112.207 111.637 112.073 111.578C111.939 111.519 111.818 111.431 111.72 111.322C111.621 111.213 111.547 111.084 111.502 110.944C111.457 110.804 111.442 110.656 111.458 110.51L111.927 106.187L107.156 113.333Z" fill="#149211"/>
<defs>
<filter id="filter0_d" x="0" y="0" width="494" height="415" filterUnits="userSpaceOnUse" color-interpolation-filters="sRGB">
<feFlood flood-opacity="0" result="BackgroundImageFix"/>
<feColorMatrix in="SourceAlpha" type="matrix" values="0 0 0 0 0 0 0 0 0 0 0 0 0 0 0 0 0 0 127 0"/>
<feMorphology radius="6" operator="dilate" in="SourceAlpha" result="effect1_dropShadow"/>
<feOffset dx="15" dy="25"/>
<feGaussianBlur stdDeviation="28"/>
<feColorMatrix type="matrix" values="0 0 0 0 0 0 0 0 0 0 0 0 0 0 0 0 0 0 0.06 0"/>
<feBlend mode="normal" in2="BackgroundImageFix" result="effect1_dropShadow"/>
<feBlend mode="normal" in="SourceGraphic" in2="effect1_dropShadow" result="shape"/>
</filter>
</defs>
</svg>
