<svg width="310" height="226" viewBox="0 0 310 226" fill="none" xmlns="http://www.w3.org/2000/svg">
<path d="M4.939 221L3.388 218.327H2.233V221H0.715V213.3H3.795C4.50633 213.3 5.11133 213.549 5.61 214.048C6.10867 214.547 6.358 215.148 6.358 215.852C6.358 216.329 6.22233 216.772 5.951 217.183C5.67967 217.586 5.32033 217.891 4.873 218.096L6.578 221H4.939ZM2.233 214.719V216.996H3.795C4.081 216.996 4.32667 216.886 4.532 216.666C4.73733 216.439 4.84 216.167 4.84 215.852C4.84 215.537 4.73733 215.269 4.532 215.049C4.32667 214.829 4.081 214.719 3.795 214.719H2.233ZM8.32554 218.833C8.51621 219.522 9.03321 219.867 9.87654 219.867C10.4192 219.867 10.8299 219.684 11.1085 219.317L12.2525 219.977C11.7099 220.762 10.9105 221.154 9.85454 221.154C8.94521 221.154 8.21554 220.879 7.66554 220.329C7.11554 219.779 6.84054 219.086 6.84054 218.25C6.84054 217.421 7.11187 216.732 7.65454 216.182C8.19721 215.625 8.89387 215.346 9.74454 215.346C10.5512 215.346 11.2149 215.625 11.7355 216.182C12.2635 216.739 12.5275 217.429 12.5275 218.25C12.5275 218.433 12.5092 218.628 12.4725 218.833H8.32554ZM8.30354 217.733H11.1085C11.0279 217.359 10.8592 217.08 10.6025 216.897C10.3532 216.714 10.0672 216.622 9.74454 216.622C9.36321 216.622 9.04787 216.721 8.79854 216.919C8.54921 217.11 8.38421 217.381 8.30354 217.733ZM17.6552 215.5H19.0742V221H17.6552V220.351C17.2298 220.886 16.6322 221.154 15.8622 221.154C15.1288 221.154 14.4982 220.875 13.9702 220.318C13.4495 219.753 13.1892 219.064 13.1892 218.25C13.1892 217.436 13.4495 216.75 13.9702 216.193C14.4982 215.628 15.1288 215.346 15.8622 215.346C16.6322 215.346 17.2298 215.614 17.6552 216.149V215.5ZM15.0372 219.372C15.3232 219.658 15.6862 219.801 16.1262 219.801C16.5662 219.801 16.9292 219.658 17.2152 219.372C17.5085 219.079 17.6552 218.705 17.6552 218.25C17.6552 217.795 17.5085 217.425 17.2152 217.139C16.9292 216.846 16.5662 216.699 16.1262 216.699C15.6862 216.699 15.3232 216.846 15.0372 217.139C14.7512 217.425 14.6082 217.795 14.6082 218.25C14.6082 218.705 14.7512 219.079 15.0372 219.372ZM24.5299 213.3H25.9489V221H24.5299V220.351C24.1119 220.886 23.5179 221.154 22.7479 221.154C22.0072 221.154 21.3729 220.875 20.8449 220.318C20.3242 219.753 20.0639 219.064 20.0639 218.25C20.0639 217.436 20.3242 216.75 20.8449 216.193C21.3729 215.628 22.0072 215.346 22.7479 215.346C23.5179 215.346 24.1119 215.614 24.5299 216.149V213.3ZM21.9119 219.372C22.2052 219.658 22.5719 219.801 23.0119 219.801C23.4519 219.801 23.8149 219.658 24.1009 219.372C24.3869 219.079 24.5299 218.705 24.5299 218.25C24.5299 217.795 24.3869 217.425 24.1009 217.139C23.8149 216.846 23.4519 216.699 23.0119 216.699C22.5719 216.699 22.2052 216.846 21.9119 217.139C21.6259 217.425 21.4829 217.795 21.4829 218.25C21.4829 218.705 21.6259 219.079 21.9119 219.372ZM37.5977 213.3V221H36.0907V216.006L33.9237 219.581H33.7477L31.5807 216.017V221H30.0627V213.3H31.6247L33.8357 216.941L36.0357 213.3H37.5977ZM43.6524 220.318C43.0877 220.875 42.3984 221.154 41.5844 221.154C40.7704 221.154 40.081 220.875 39.5164 220.318C38.959 219.753 38.6804 219.064 38.6804 218.25C38.6804 217.436 38.959 216.75 39.5164 216.193C40.081 215.628 40.7704 215.346 41.5844 215.346C42.3984 215.346 43.0877 215.628 43.6524 216.193C44.217 216.75 44.4994 217.436 44.4994 218.25C44.4994 219.064 44.217 219.753 43.6524 220.318ZM40.5174 219.339C40.8034 219.625 41.159 219.768 41.5844 219.768C42.0097 219.768 42.3654 219.625 42.6514 219.339C42.9374 219.053 43.0804 218.69 43.0804 218.25C43.0804 217.81 42.9374 217.447 42.6514 217.161C42.3654 216.875 42.0097 216.732 41.5844 216.732C41.159 216.732 40.8034 216.875 40.5174 217.161C40.2387 217.447 40.0994 217.81 40.0994 218.25C40.0994 218.69 40.2387 219.053 40.5174 219.339ZM46.9166 216.446C47.0486 216.094 47.265 215.83 47.5656 215.654C47.8736 215.478 48.2146 215.39 48.5886 215.39V216.974C48.156 216.923 47.7673 217.011 47.4226 217.238C47.0853 217.465 46.9166 217.843 46.9166 218.371V221H45.4976V215.5H46.9166V216.446ZM50.4134 218.833C50.6041 219.522 51.1211 219.867 51.9644 219.867C52.5071 219.867 52.9178 219.684 53.1964 219.317L54.3404 219.977C53.7978 220.762 52.9984 221.154 51.9424 221.154C51.0331 221.154 50.3034 220.879 49.7534 220.329C49.2034 219.779 48.9284 219.086 48.9284 218.25C48.9284 217.421 49.1998 216.732 49.7424 216.182C50.2851 215.625 50.9818 215.346 51.8324 215.346C52.6391 215.346 53.3028 215.625 53.8234 216.182C54.3514 216.739 54.6154 217.429 54.6154 218.25C54.6154 218.433 54.5971 218.628 54.5604 218.833H50.4134ZM50.3914 217.733H53.1964C53.1158 217.359 52.9471 217.08 52.6904 216.897C52.4411 216.714 52.1551 216.622 51.8324 216.622C51.4511 216.622 51.1358 216.721 50.8864 216.919C50.6371 217.11 50.4721 217.381 50.3914 217.733ZM56.6506 220.868C56.4673 221.051 56.2473 221.143 55.9906 221.143C55.7339 221.143 55.5139 221.051 55.3306 220.868C55.1473 220.685 55.0556 220.465 55.0556 220.208C55.0556 219.951 55.1473 219.731 55.3306 219.548C55.5139 219.365 55.7339 219.273 55.9906 219.273C56.2473 219.273 56.4673 219.365 56.6506 219.548C56.8339 219.731 56.9256 219.951 56.9256 220.208C56.9256 220.465 56.8339 220.685 56.6506 220.868ZM59.594 220.868C59.4106 221.051 59.1906 221.143 58.934 221.143C58.6773 221.143 58.4573 221.051 58.274 220.868C58.0906 220.685 57.999 220.465 57.999 220.208C57.999 219.951 58.0906 219.731 58.274 219.548C58.4573 219.365 58.6773 219.273 58.934 219.273C59.1906 219.273 59.4106 219.365 59.594 219.548C59.7773 219.731 59.869 219.951 59.869 220.208C59.869 220.465 59.7773 220.685 59.594 220.868ZM62.5373 220.868C62.354 221.051 62.134 221.143 61.8773 221.143C61.6207 221.143 61.4007 221.051 61.2173 220.868C61.034 220.685 60.9423 220.465 60.9423 220.208C60.9423 219.951 61.034 219.731 61.2173 219.548C61.4007 219.365 61.6207 219.273 61.8773 219.273C62.134 219.273 62.354 219.365 62.5373 219.548C62.7207 219.731 62.8123 219.951 62.8123 220.208C62.8123 220.465 62.7207 220.685 62.5373 220.868Z" fill="black"/>
<path d="M2.25 157.01H7.05V158H1.2V147.5H2.25V157.01ZM11.4877 150.32C12.5977 150.32 13.4927 150.715 14.1727 151.505C14.8627 152.285 15.2077 153.21 15.2077 154.28C15.2077 154.39 15.1977 154.545 15.1777 154.745H8.59266C8.69266 155.505 9.01266 156.11 9.55266 156.56C10.1027 157 10.7777 157.22 11.5777 157.22C12.1477 157.22 12.6377 157.105 13.0477 156.875C13.4677 156.635 13.7827 156.325 13.9927 155.945L14.8627 156.455C14.5327 156.985 14.0827 157.405 13.5127 157.715C12.9427 158.025 12.2927 158.18 11.5627 158.18C10.3827 158.18 9.42266 157.81 8.68266 157.07C7.94266 156.33 7.57266 155.39 7.57266 154.25C7.57266 153.13 7.93766 152.195 8.66766 151.445C9.39766 150.695 10.3377 150.32 11.4877 150.32ZM11.4877 151.28C10.7077 151.28 10.0527 151.515 9.52266 151.985C9.00266 152.445 8.69266 153.045 8.59266 153.785H14.1877C14.0877 152.995 13.7827 152.38 13.2727 151.94C12.7627 151.5 12.1677 151.28 11.4877 151.28ZM21.8895 150.5H22.9395L19.8645 158H18.6645L15.5895 150.5H16.6395L19.2645 156.965L21.8895 150.5ZM27.308 150.32C28.418 150.32 29.313 150.715 29.993 151.505C30.683 152.285 31.028 153.21 31.028 154.28C31.028 154.39 31.018 154.545 30.998 154.745H24.413C24.513 155.505 24.833 156.11 25.373 156.56C25.923 157 26.598 157.22 27.398 157.22C27.968 157.22 28.458 157.105 28.868 156.875C29.288 156.635 29.603 156.325 29.813 155.945L30.683 156.455C30.353 156.985 29.903 157.405 29.333 157.715C28.763 158.025 28.113 158.18 27.383 158.18C26.203 158.18 25.243 157.81 24.503 157.07C23.763 156.33 23.393 155.39 23.393 154.25C23.393 153.13 23.758 152.195 24.488 151.445C25.218 150.695 26.158 150.32 27.308 150.32ZM27.308 151.28C26.528 151.28 25.873 151.515 25.343 151.985C24.823 152.445 24.513 153.045 24.413 153.785H30.008C29.908 152.995 29.603 152.38 29.093 151.94C28.583 151.5 27.988 151.28 27.308 151.28ZM33.5927 151.745C34.0527 150.835 34.8427 150.38 35.9627 150.38V151.34C35.2827 151.34 34.7177 151.54 34.2677 151.94C33.8177 152.34 33.5927 152.97 33.5927 153.83V158H32.6027V150.5H33.5927V151.745ZM43.3154 150.5H44.3054V158H43.3154V156.53C42.6254 157.63 41.6154 158.18 40.2854 158.18C39.2154 158.18 38.3004 157.8 37.5404 157.04C36.7904 156.28 36.4154 155.35 36.4154 154.25C36.4154 153.15 36.7904 152.22 37.5404 151.46C38.3004 150.7 39.2154 150.32 40.2854 150.32C41.6154 150.32 42.6254 150.87 43.3154 151.97V150.5ZM38.2604 156.365C38.8304 156.935 39.5304 157.22 40.3604 157.22C41.1904 157.22 41.8904 156.935 42.4604 156.365C43.0304 155.785 43.3154 155.08 43.3154 154.25C43.3154 153.42 43.0304 152.72 42.4604 152.15C41.8904 151.57 41.1904 151.28 40.3604 151.28C39.5304 151.28 38.8304 151.57 38.2604 152.15C37.6904 152.72 37.4054 153.42 37.4054 154.25C37.4054 155.08 37.6904 155.785 38.2604 156.365ZM52.8516 150.5H53.8416V157.7C53.8416 158.78 53.4716 159.63 52.7316 160.25C51.9916 160.87 51.1066 161.18 50.0766 161.18C48.3166 161.18 47.1316 160.57 46.5216 159.35L47.3916 158.855C47.8416 159.765 48.7366 160.22 50.0766 160.22C50.9366 160.22 51.6116 159.99 52.1016 159.53C52.6016 159.08 52.8516 158.47 52.8516 157.7V156.53C52.1616 157.63 51.1516 158.18 49.8216 158.18C48.7516 158.18 47.8366 157.8 47.0766 157.04C46.3266 156.28 45.9516 155.35 45.9516 154.25C45.9516 153.15 46.3266 152.22 47.0766 151.46C47.8366 150.7 48.7516 150.32 49.8216 150.32C51.1516 150.32 52.1616 150.87 52.8516 151.97V150.5ZM47.7966 156.365C48.3666 156.935 49.0666 157.22 49.8966 157.22C50.7266 157.22 51.4266 156.935 51.9966 156.365C52.5666 155.785 52.8516 155.08 52.8516 154.25C52.8516 153.42 52.5666 152.72 51.9966 152.15C51.4266 151.57 50.7266 151.28 49.8966 151.28C49.0666 151.28 48.3666 151.57 47.7966 152.15C47.2266 152.72 46.9416 153.42 46.9416 154.25C46.9416 155.08 47.2266 155.785 47.7966 156.365ZM59.4027 150.32C60.5127 150.32 61.4077 150.715 62.0877 151.505C62.7777 152.285 63.1227 153.21 63.1227 154.28C63.1227 154.39 63.1127 154.545 63.0927 154.745H56.5077C56.6077 155.505 56.9277 156.11 57.4677 156.56C58.0177 157 58.6927 157.22 59.4927 157.22C60.0627 157.22 60.5527 157.105 60.9627 156.875C61.3827 156.635 61.6977 156.325 61.9077 155.945L62.7777 156.455C62.4477 156.985 61.9977 157.405 61.4277 157.715C60.8577 158.025 60.2077 158.18 59.4777 158.18C58.2977 158.18 57.3377 157.81 56.5977 157.07C55.8577 156.33 55.4877 155.39 55.4877 154.25C55.4877 153.13 55.8527 152.195 56.5827 151.445C57.3127 150.695 58.2527 150.32 59.4027 150.32ZM59.4027 151.28C58.6227 151.28 57.9677 151.515 57.4377 151.985C56.9177 152.445 56.6077 153.045 56.5077 153.785H62.1027C62.0027 152.995 61.6977 152.38 61.1877 151.94C60.6777 151.5 60.0827 151.28 59.4027 151.28ZM74.8975 150.5H75.8875V158H74.8975V156.53C74.2075 157.63 73.1975 158.18 71.8675 158.18C70.7975 158.18 69.8825 157.8 69.1225 157.04C68.3725 156.28 67.9975 155.35 67.9975 154.25C67.9975 153.15 68.3725 152.22 69.1225 151.46C69.8825 150.7 70.7975 150.32 71.8675 150.32C73.1975 150.32 74.2075 150.87 74.8975 151.97V150.5ZM69.8425 156.365C70.4125 156.935 71.1125 157.22 71.9425 157.22C72.7725 157.22 73.4725 156.935 74.0425 156.365C74.6125 155.785 74.8975 155.08 74.8975 154.25C74.8975 153.42 74.6125 152.72 74.0425 152.15C73.4725 151.57 72.7725 151.28 71.9425 151.28C71.1125 151.28 70.4125 151.57 69.8425 152.15C69.2725 152.72 68.9875 153.42 68.9875 154.25C68.9875 155.08 69.2725 155.785 69.8425 156.365ZM84.4336 150.5H85.4236V157.7C85.4236 158.78 85.0536 159.63 84.3136 160.25C83.5736 160.87 82.6886 161.18 81.6586 161.18C79.8986 161.18 78.7136 160.57 78.1036 159.35L78.9736 158.855C79.4236 159.765 80.3186 160.22 81.6586 160.22C82.5186 160.22 83.1936 159.99 83.6836 159.53C84.1836 159.08 84.4336 158.47 84.4336 157.7V156.53C83.7436 157.63 82.7336 158.18 81.4036 158.18C80.3336 158.18 79.4186 157.8 78.6586 157.04C77.9086 156.28 77.5336 155.35 77.5336 154.25C77.5336 153.15 77.9086 152.22 78.6586 151.46C79.4186 150.7 80.3336 150.32 81.4036 150.32C82.7336 150.32 83.7436 150.87 84.4336 151.97V150.5ZM79.3786 156.365C79.9486 156.935 80.6486 157.22 81.4786 157.22C82.3086 157.22 83.0086 156.935 83.5786 156.365C84.1486 155.785 84.4336 155.08 84.4336 154.25C84.4336 153.42 84.1486 152.72 83.5786 152.15C83.0086 151.57 82.3086 151.28 81.4786 151.28C80.6486 151.28 79.9486 151.57 79.3786 152.15C78.8086 152.72 78.5236 153.42 78.5236 154.25C78.5236 155.08 78.8086 155.785 79.3786 156.365ZM88.5247 148.7C88.3847 148.84 88.2147 148.91 88.0147 148.91C87.8147 148.91 87.6447 148.84 87.5047 148.7C87.3647 148.56 87.2947 148.39 87.2947 148.19C87.2947 147.99 87.3647 147.82 87.5047 147.68C87.6447 147.54 87.8147 147.47 88.0147 147.47C88.2147 147.47 88.3847 147.54 88.5247 147.68C88.6647 147.82 88.7347 147.99 88.7347 148.19C88.7347 148.39 88.6647 148.56 88.5247 148.7ZM87.5197 158V150.5H88.5097V158H87.5197ZM90.6105 158V147.05H91.6005V158H90.6105ZM97.1664 150.32C98.2764 150.32 99.1714 150.715 99.8514 151.505C100.541 152.285 100.886 153.21 100.886 154.28C100.886 154.39 100.876 154.545 100.856 154.745H94.2714C94.3714 155.505 94.6914 156.11 95.2314 156.56C95.7814 157 96.4564 157.22 97.2564 157.22C97.8264 157.22 98.3164 157.105 98.7264 156.875C99.1464 156.635 99.4614 156.325 99.6714 155.945L100.541 156.455C100.211 156.985 99.7614 157.405 99.1914 157.715C98.6214 158.025 97.9714 158.18 97.2414 158.18C96.0614 158.18 95.1014 157.81 94.3614 157.07C93.6214 156.33 93.2514 155.39 93.2514 154.25C93.2514 153.13 93.6164 152.195 94.3464 151.445C95.0764 150.695 96.0164 150.32 97.1664 150.32ZM97.1664 151.28C96.3864 151.28 95.7314 151.515 95.2014 151.985C94.6814 152.445 94.3714 153.045 94.2714 153.785H99.8664C99.7664 152.995 99.4614 152.38 98.9514 151.94C98.4414 151.5 97.8464 151.28 97.1664 151.28ZM109.961 148.28C109.231 148.22 108.686 148.345 108.326 148.655C107.976 148.965 107.801 149.48 107.801 150.2V150.5H109.961V151.46H107.801V158H106.811V151.46H105.536V150.5H106.811V150.2C106.811 149.22 107.081 148.48 107.621 147.98C108.171 147.47 108.951 147.25 109.961 147.32V148.28ZM112.006 151.745C112.466 150.835 113.256 150.38 114.376 150.38V151.34C113.696 151.34 113.131 151.54 112.681 151.94C112.231 152.34 112.006 152.97 112.006 153.83V158H111.016V150.5H112.006V151.745ZM121.729 150.5H122.719V158H121.729V156.53C121.039 157.63 120.029 158.18 118.699 158.18C117.629 158.18 116.714 157.8 115.954 157.04C115.204 156.28 114.829 155.35 114.829 154.25C114.829 153.15 115.204 152.22 115.954 151.46C116.714 150.7 117.629 150.32 118.699 150.32C120.029 150.32 121.039 150.87 121.729 151.97V150.5ZM116.674 156.365C117.244 156.935 117.944 157.22 118.774 157.22C119.604 157.22 120.304 156.935 120.874 156.365C121.444 155.785 121.729 155.08 121.729 154.25C121.729 153.42 121.444 152.72 120.874 152.15C120.304 151.57 119.604 151.28 118.774 151.28C117.944 151.28 117.244 151.57 116.674 152.15C116.104 152.72 115.819 153.42 115.819 154.25C115.819 155.08 116.104 155.785 116.674 156.365ZM132.81 150.32C133.65 150.32 134.325 150.59 134.835 151.13C135.355 151.67 135.615 152.4 135.615 153.32V158H134.625V153.32C134.625 152.67 134.455 152.17 134.115 151.82C133.785 151.46 133.345 151.28 132.795 151.28C132.175 151.28 131.67 151.49 131.28 151.91C130.9 152.32 130.71 152.965 130.71 153.845V158H129.72V153.32C129.72 152.66 129.56 152.155 129.24 151.805C128.93 151.455 128.505 151.28 127.965 151.28C127.365 151.28 126.855 151.49 126.435 151.91C126.015 152.33 125.805 152.975 125.805 153.845V158H124.815V150.5H125.805V151.595C126.345 150.745 127.11 150.32 128.1 150.32C129.18 150.32 129.94 150.775 130.38 151.685C130.92 150.775 131.73 150.32 132.81 150.32ZM140.994 150.32C142.104 150.32 142.999 150.715 143.679 151.505C144.369 152.285 144.714 153.21 144.714 154.28C144.714 154.39 144.704 154.545 144.684 154.745H138.099C138.199 155.505 138.519 156.11 139.059 156.56C139.609 157 140.284 157.22 141.084 157.22C141.654 157.22 142.144 157.105 142.554 156.875C142.974 156.635 143.289 156.325 143.499 155.945L144.369 156.455C144.039 156.985 143.589 157.405 143.019 157.715C142.449 158.025 141.799 158.18 141.069 158.18C139.889 158.18 138.929 157.81 138.189 157.07C137.449 156.33 137.079 155.39 137.079 154.25C137.079 153.13 137.444 152.195 138.174 151.445C138.904 150.695 139.844 150.32 140.994 150.32ZM140.994 151.28C140.214 151.28 139.559 151.515 139.029 151.985C138.509 152.445 138.199 153.045 138.099 153.785H143.694C143.594 152.995 143.289 152.38 142.779 151.94C142.269 151.5 141.674 151.28 140.994 151.28ZM155.026 150.5H156.046L153.736 158H152.656L150.721 151.955L148.786 158H147.706L145.396 150.5H146.416L148.261 156.725L150.226 150.5H151.216L153.181 156.725L155.026 150.5ZM163.531 157.055C162.771 157.805 161.841 158.18 160.741 158.18C159.641 158.18 158.706 157.805 157.936 157.055C157.176 156.295 156.796 155.36 156.796 154.25C156.796 153.14 157.176 152.21 157.936 151.46C158.706 150.7 159.641 150.32 160.741 150.32C161.841 150.32 162.771 150.7 163.531 151.46C164.301 152.21 164.686 153.14 164.686 154.25C164.686 155.36 164.301 156.295 163.531 157.055ZM158.641 156.365C159.211 156.935 159.911 157.22 160.741 157.22C161.571 157.22 162.271 156.935 162.841 156.365C163.411 155.785 163.696 155.08 163.696 154.25C163.696 153.42 163.411 152.72 162.841 152.15C162.271 151.57 161.571 151.28 160.741 151.28C159.911 151.28 159.211 151.57 158.641 152.15C158.071 152.72 157.786 153.42 157.786 154.25C157.786 155.08 158.071 155.785 158.641 156.365ZM167.333 151.745C167.793 150.835 168.583 150.38 169.703 150.38V151.34C169.023 151.34 168.458 151.54 168.008 151.94C167.558 152.34 167.333 152.97 167.333 153.83V158H166.343V150.5H167.333V151.745ZM177.12 158H175.8L172.05 154.385V158H171.06V147.5H172.05V153.815L175.62 150.5H176.97L173.1 154.1L177.12 158ZM178.651 152.465C178.651 152.805 178.801 153.075 179.101 153.275C179.401 153.475 179.766 153.63 180.196 153.74C180.626 153.85 181.056 153.975 181.486 154.115C181.916 154.245 182.281 154.47 182.581 154.79C182.881 155.1 183.031 155.51 183.031 156.02C183.031 156.66 182.776 157.18 182.266 157.58C181.766 157.98 181.116 158.18 180.316 158.18C179.596 158.18 178.981 158.02 178.471 157.7C177.971 157.38 177.621 156.965 177.421 156.455L178.261 155.96C178.401 156.35 178.651 156.66 179.011 156.89C179.381 157.11 179.816 157.22 180.316 157.22C180.806 157.22 181.216 157.125 181.546 156.935C181.876 156.735 182.041 156.43 182.041 156.02C182.041 155.68 181.891 155.41 181.591 155.21C181.291 155.01 180.926 154.855 180.496 154.745C180.066 154.635 179.636 154.515 179.206 154.385C178.776 154.245 178.411 154.02 178.111 153.71C177.811 153.39 177.661 152.975 177.661 152.465C177.661 151.855 177.901 151.345 178.381 150.935C178.871 150.525 179.486 150.32 180.226 150.32C180.836 150.32 181.371 150.46 181.831 150.74C182.291 151.01 182.631 151.38 182.851 151.85L182.026 152.33C181.736 151.63 181.136 151.28 180.226 151.28C179.796 151.28 179.426 151.385 179.116 151.595C178.806 151.795 178.651 152.085 178.651 152.465ZM192.408 151.46H190.248V156.005C190.248 156.415 190.328 156.71 190.488 156.89C190.648 157.06 190.888 157.15 191.208 157.16C191.528 157.16 191.928 157.15 192.408 157.13V158C191.358 158.16 190.568 158.085 190.038 157.775C189.518 157.465 189.258 156.875 189.258 156.005V151.46H187.683V150.5H189.258V148.7L190.248 148.4V150.5H192.408V151.46ZM199.889 157.055C199.129 157.805 198.199 158.18 197.099 158.18C195.999 158.18 195.064 157.805 194.294 157.055C193.534 156.295 193.154 155.36 193.154 154.25C193.154 153.14 193.534 152.21 194.294 151.46C195.064 150.7 195.999 150.32 197.099 150.32C198.199 150.32 199.129 150.7 199.889 151.46C200.659 152.21 201.044 153.14 201.044 154.25C201.044 155.36 200.659 156.295 199.889 157.055ZM194.999 156.365C195.569 156.935 196.269 157.22 197.099 157.22C197.929 157.22 198.629 156.935 199.199 156.365C199.769 155.785 200.054 155.08 200.054 154.25C200.054 153.42 199.769 152.72 199.199 152.15C198.629 151.57 197.929 151.28 197.099 151.28C196.269 151.28 195.569 151.57 194.999 152.15C194.429 152.72 194.144 153.42 194.144 154.25C194.144 155.08 194.429 155.785 194.999 156.365ZM210.47 150.32C211.54 150.32 212.45 150.7 213.2 151.46C213.96 152.22 214.34 153.15 214.34 154.25C214.34 155.35 213.96 156.28 213.2 157.04C212.45 157.8 211.54 158.18 210.47 158.18C209.14 158.18 208.13 157.63 207.44 156.53V161H206.45V150.5H207.44V151.97C208.13 150.87 209.14 150.32 210.47 150.32ZM208.295 156.365C208.865 156.935 209.565 157.22 210.395 157.22C211.225 157.22 211.925 156.935 212.495 156.365C213.065 155.785 213.35 155.08 213.35 154.25C213.35 153.42 213.065 152.72 212.495 152.15C211.925 151.57 211.225 151.28 210.395 151.28C209.565 151.28 208.865 151.57 208.295 152.15C207.725 152.72 207.44 153.42 207.44 154.25C207.44 155.08 207.725 155.785 208.295 156.365ZM216.977 151.745C217.437 150.835 218.227 150.38 219.347 150.38V151.34C218.667 151.34 218.102 151.54 217.652 151.94C217.202 152.34 216.977 152.97 216.977 153.83V158H215.987V150.5H216.977V151.745ZM226.534 157.055C225.774 157.805 224.844 158.18 223.744 158.18C222.644 158.18 221.709 157.805 220.939 157.055C220.179 156.295 219.799 155.36 219.799 154.25C219.799 153.14 220.179 152.21 220.939 151.46C221.709 150.7 222.644 150.32 223.744 150.32C224.844 150.32 225.774 150.7 226.534 151.46C227.304 152.21 227.689 153.14 227.689 154.25C227.689 155.36 227.304 156.295 226.534 157.055ZM221.644 156.365C222.214 156.935 222.914 157.22 223.744 157.22C224.574 157.22 225.274 156.935 225.844 156.365C226.414 155.785 226.699 155.08 226.699 154.25C226.699 153.42 226.414 152.72 225.844 152.15C225.274 151.57 224.574 151.28 223.744 151.28C222.914 151.28 222.214 151.57 221.644 152.15C221.074 152.72 220.789 153.42 220.789 154.25C220.789 155.08 221.074 155.785 221.644 156.365ZM234.453 150.5H235.503L232.428 158H231.228L228.153 150.5H229.203L231.828 156.965L234.453 150.5ZM237.704 148.7C237.564 148.84 237.394 148.91 237.194 148.91C236.994 148.91 236.824 148.84 236.684 148.7C236.544 148.56 236.474 148.39 236.474 148.19C236.474 147.99 236.544 147.82 236.684 147.68C236.824 147.54 236.994 147.47 237.194 147.47C237.394 147.47 237.564 147.54 237.704 147.68C237.844 147.82 237.914 147.99 237.914 148.19C237.914 148.39 237.844 148.56 237.704 148.7ZM236.699 158V150.5H237.689V158H236.699ZM246.24 147.5H247.23V158H246.24V156.53C245.55 157.63 244.54 158.18 243.21 158.18C242.14 158.18 241.225 157.8 240.465 157.04C239.715 156.28 239.34 155.35 239.34 154.25C239.34 153.15 239.715 152.22 240.465 151.46C241.225 150.7 242.14 150.32 243.21 150.32C244.54 150.32 245.55 150.87 246.24 151.97V147.5ZM241.185 156.365C241.755 156.935 242.455 157.22 243.285 157.22C244.115 157.22 244.815 156.935 245.385 156.365C245.955 155.785 246.24 155.08 246.24 154.25C246.24 153.42 245.955 152.72 245.385 152.15C244.815 151.57 244.115 151.28 243.285 151.28C242.455 151.28 241.755 151.57 241.185 152.15C240.615 152.72 240.33 153.42 240.33 154.25C240.33 155.08 240.615 155.785 241.185 156.365ZM252.791 150.32C253.901 150.32 254.796 150.715 255.476 151.505C256.166 152.285 256.511 153.21 256.511 154.28C256.511 154.39 256.501 154.545 256.481 154.745H249.896C249.996 155.505 250.316 156.11 250.856 156.56C251.406 157 252.081 157.22 252.881 157.22C253.451 157.22 253.941 157.105 254.351 156.875C254.771 156.635 255.086 156.325 255.296 155.945L256.166 156.455C255.836 156.985 255.386 157.405 254.816 157.715C254.246 158.025 253.596 158.18 252.866 158.18C251.686 158.18 250.726 157.81 249.986 157.07C249.246 156.33 248.876 155.39 248.876 154.25C248.876 153.13 249.241 152.195 249.971 151.445C250.701 150.695 251.641 150.32 252.791 150.32ZM252.791 151.28C252.011 151.28 251.356 151.515 250.826 151.985C250.306 152.445 249.996 153.045 249.896 153.785H255.491C255.391 152.995 255.086 152.38 254.576 151.94C254.066 151.5 253.471 151.28 252.791 151.28ZM268.286 150.5H269.276V158H268.286V156.53C267.596 157.63 266.586 158.18 265.256 158.18C264.186 158.18 263.271 157.8 262.511 157.04C261.761 156.28 261.386 155.35 261.386 154.25C261.386 153.15 261.761 152.22 262.511 151.46C263.271 150.7 264.186 150.32 265.256 150.32C266.586 150.32 267.596 150.87 268.286 151.97V150.5ZM263.231 156.365C263.801 156.935 264.501 157.22 265.331 157.22C266.161 157.22 266.861 156.935 267.431 156.365C268.001 155.785 268.286 155.08 268.286 154.25C268.286 153.42 268.001 152.72 267.431 152.15C266.861 151.57 266.161 151.28 265.331 151.28C264.501 151.28 263.801 151.57 263.231 152.15C262.661 152.72 262.376 153.42 262.376 154.25C262.376 155.08 262.661 155.785 263.231 156.365ZM2.04 174.745C2.5 173.835 3.29 173.38 4.41 173.38V174.34C3.73 174.34 3.165 174.54 2.715 174.94C2.265 175.34 2.04 175.97 2.04 176.83V181H1.05V173.5H2.04V174.745ZM11.5977 180.055C10.8377 180.805 9.9077 181.18 8.8077 181.18C7.7077 181.18 6.7727 180.805 6.0027 180.055C5.2427 179.295 4.8627 178.36 4.8627 177.25C4.8627 176.14 5.2427 175.21 6.0027 174.46C6.7727 173.7 7.7077 173.32 8.8077 173.32C9.9077 173.32 10.8377 173.7 11.5977 174.46C12.3677 175.21 12.7527 176.14 12.7527 177.25C12.7527 178.36 12.3677 179.295 11.5977 180.055ZM6.7077 179.365C7.2777 179.935 7.9777 180.22 8.8077 180.22C9.6377 180.22 10.3377 179.935 10.9077 179.365C11.4777 178.785 11.7627 178.08 11.7627 177.25C11.7627 176.42 11.4777 175.72 10.9077 175.15C10.3377 174.57 9.6377 174.28 8.8077 174.28C7.9777 174.28 7.2777 174.57 6.7077 175.15C6.1377 175.72 5.8527 176.42 5.8527 177.25C5.8527 178.08 6.1377 178.785 6.7077 179.365ZM18.4294 173.32C19.4994 173.32 20.4094 173.7 21.1594 174.46C21.9194 175.22 22.2994 176.15 22.2994 177.25C22.2994 178.35 21.9194 179.28 21.1594 180.04C20.4094 180.8 19.4994 181.18 18.4294 181.18C17.0994 181.18 16.0894 180.63 15.3994 179.53V181H14.4094V170.5H15.3994V174.97C16.0894 173.87 17.0994 173.32 18.4294 173.32ZM16.2544 179.365C16.8244 179.935 17.5244 180.22 18.3544 180.22C19.1844 180.22 19.8844 179.935 20.4544 179.365C21.0244 178.785 21.3094 178.08 21.3094 177.25C21.3094 176.42 21.0244 175.72 20.4544 175.15C19.8844 174.57 19.1844 174.28 18.3544 174.28C17.5244 174.28 16.8244 174.57 16.2544 175.15C15.6844 175.72 15.3994 176.42 15.3994 177.25C15.3994 178.08 15.6844 178.785 16.2544 179.365ZM29.2255 173.5H30.2155V181H29.2255V179.83C28.6655 180.73 27.8255 181.18 26.7055 181.18C25.7955 181.18 25.0755 180.905 24.5455 180.355C24.0255 179.795 23.7655 179.045 23.7655 178.105V173.5H24.7555V178.105C24.7555 178.775 24.9305 179.295 25.2805 179.665C25.6405 180.035 26.1455 180.22 26.7955 180.22C27.5155 180.22 28.1005 179.995 28.5505 179.545C29.0005 179.085 29.2255 178.38 29.2255 177.43V173.5ZM33.0898 175.465C33.0898 175.805 33.2398 176.075 33.5398 176.275C33.8398 176.475 34.2048 176.63 34.6348 176.74C35.0648 176.85 35.4948 176.975 35.9248 177.115C36.3548 177.245 36.7198 177.47 37.0198 177.79C37.3198 178.1 37.4698 178.51 37.4698 179.02C37.4698 179.66 37.2148 180.18 36.7048 180.58C36.2048 180.98 35.5548 181.18 34.7548 181.18C34.0348 181.18 33.4198 181.02 32.9098 180.7C32.4098 180.38 32.0598 179.965 31.8598 179.455L32.6998 178.96C32.8398 179.35 33.0898 179.66 33.4498 179.89C33.8198 180.11 34.2548 180.22 34.7548 180.22C35.2448 180.22 35.6548 180.125 35.9848 179.935C36.3148 179.735 36.4798 179.43 36.4798 179.02C36.4798 178.68 36.3298 178.41 36.0298 178.21C35.7298 178.01 35.3648 177.855 34.9348 177.745C34.5048 177.635 34.0748 177.515 33.6448 177.385C33.2148 177.245 32.8498 177.02 32.5498 176.71C32.2498 176.39 32.0998 175.975 32.0998 175.465C32.0998 174.855 32.3398 174.345 32.8198 173.935C33.3098 173.525 33.9248 173.32 34.6648 173.32C35.2748 173.32 35.8098 173.46 36.2698 173.74C36.7298 174.01 37.0698 174.38 37.2898 174.85L36.4648 175.33C36.1748 174.63 35.5748 174.28 34.6648 174.28C34.2348 174.28 33.8648 174.385 33.5548 174.595C33.2448 174.795 33.0898 175.085 33.0898 175.465ZM42.8033 174.46H40.6433V179.005C40.6433 179.415 40.7233 179.71 40.8833 179.89C41.0433 180.06 41.2833 180.15 41.6033 180.16C41.9233 180.16 42.3233 180.15 42.8033 180.13V181C41.7533 181.16 40.9633 181.085 40.4333 180.775C39.9133 180.465 39.6533 179.875 39.6533 179.005V174.46H38.0783V173.5H39.6533V171.7L40.6433 171.4V173.5H42.8033V174.46ZM48.9833 175.465C48.9833 175.805 49.1333 176.075 49.4333 176.275C49.7333 176.475 50.0983 176.63 50.5283 176.74C50.9583 176.85 51.3883 176.975 51.8183 177.115C52.2483 177.245 52.6133 177.47 52.9133 177.79C53.2133 178.1 53.3633 178.51 53.3633 179.02C53.3633 179.66 53.1083 180.18 52.5983 180.58C52.0983 180.98 51.4483 181.18 50.6483 181.18C49.9283 181.18 49.3133 181.02 48.8033 180.7C48.3033 180.38 47.9533 179.965 47.7533 179.455L48.5933 178.96C48.7333 179.35 48.9833 179.66 49.3433 179.89C49.7133 180.11 50.1483 180.22 50.6483 180.22C51.1383 180.22 51.5483 180.125 51.8783 179.935C52.2083 179.735 52.3733 179.43 52.3733 179.02C52.3733 178.68 52.2233 178.41 51.9233 178.21C51.6233 178.01 51.2583 177.855 50.8283 177.745C50.3983 177.635 49.9683 177.515 49.5383 177.385C49.1083 177.245 48.7433 177.02 48.4433 176.71C48.1433 176.39 47.9933 175.975 47.9933 175.465C47.9933 174.855 48.2333 174.345 48.7133 173.935C49.2033 173.525 49.8183 173.32 50.5583 173.32C51.1683 173.32 51.7033 173.46 52.1633 173.74C52.6233 174.01 52.9633 174.38 53.1833 174.85L52.3583 175.33C52.0683 174.63 51.4683 174.28 50.5583 174.28C50.1283 174.28 49.7583 174.385 49.4483 174.595C49.1383 174.795 48.9833 175.085 48.9833 175.465ZM60.034 173.5H61.084L57.874 181.69C57.584 182.43 57.169 183.01 56.629 183.43C56.099 183.86 55.504 184.05 54.844 184V183.07C55.744 183.17 56.429 182.65 56.899 181.51L57.094 181.045L53.734 173.5H54.784L57.604 179.785L60.034 173.5ZM65.7905 173.32C66.7005 173.32 67.4155 173.6 67.9355 174.16C68.4655 174.71 68.7305 175.455 68.7305 176.395V181H67.7405V176.395C67.7405 175.725 67.5605 175.205 67.2005 174.835C66.8505 174.465 66.3505 174.28 65.7005 174.28C64.9805 174.28 64.3955 174.51 63.9455 174.97C63.4955 175.42 63.2705 176.12 63.2705 177.07V181H62.2805V173.5H63.2705V174.67C63.8305 173.77 64.6705 173.32 65.7905 173.32ZM76.9297 180.055C76.1697 180.805 75.2397 181.18 74.1397 181.18C73.0397 181.18 72.1047 180.805 71.3347 180.055C70.5747 179.295 70.1947 178.36 70.1947 177.25C70.1947 176.14 70.5747 175.21 71.3347 174.46C72.1047 173.7 73.0397 173.32 74.1397 173.32C75.2397 173.32 76.1697 173.7 76.9297 174.46C77.6997 175.21 78.0847 176.14 78.0847 177.25C78.0847 178.36 77.6997 179.295 76.9297 180.055ZM72.0397 179.365C72.6097 179.935 73.3097 180.22 74.1397 180.22C74.9697 180.22 75.6697 179.935 76.2397 179.365C76.8097 178.785 77.0947 178.08 77.0947 177.25C77.0947 176.42 76.8097 175.72 76.2397 175.15C75.6697 174.57 74.9697 174.28 74.1397 174.28C73.3097 174.28 72.6097 174.57 72.0397 175.15C71.4697 175.72 71.1847 176.42 71.1847 177.25C71.1847 178.08 71.4697 178.785 72.0397 179.365ZM83.7614 173.32C84.8314 173.32 85.7414 173.7 86.4914 174.46C87.2514 175.22 87.6314 176.15 87.6314 177.25C87.6314 178.35 87.2514 179.28 86.4914 180.04C85.7414 180.8 84.8314 181.18 83.7614 181.18C82.4314 181.18 81.4214 180.63 80.7314 179.53V184H79.7414V173.5H80.7314V174.97C81.4214 173.87 82.4314 173.32 83.7614 173.32ZM81.5864 179.365C82.1564 179.935 82.8564 180.22 83.6864 180.22C84.5164 180.22 85.2164 179.935 85.7864 179.365C86.3564 178.785 86.6414 178.08 86.6414 177.25C86.6414 176.42 86.3564 175.72 85.7864 175.15C85.2164 174.57 84.5164 174.28 83.6864 174.28C82.8564 174.28 82.1564 174.57 81.5864 175.15C81.0164 175.72 80.7314 176.42 80.7314 177.25C80.7314 178.08 81.0164 178.785 81.5864 179.365ZM89.9111 175.465C89.9111 175.805 90.0611 176.075 90.3611 176.275C90.6611 176.475 91.0261 176.63 91.4561 176.74C91.8861 176.85 92.3161 176.975 92.7461 177.115C93.1761 177.245 93.5411 177.47 93.8411 177.79C94.1411 178.1 94.2911 178.51 94.2911 179.02C94.2911 179.66 94.0361 180.18 93.5261 180.58C93.0261 180.98 92.3761 181.18 91.5761 181.18C90.8561 181.18 90.2411 181.02 89.7311 180.7C89.2311 180.38 88.8811 179.965 88.6811 179.455L89.5211 178.96C89.6611 179.35 89.9111 179.66 90.2711 179.89C90.6411 180.11 91.0761 180.22 91.5761 180.22C92.0661 180.22 92.4761 180.125 92.8061 179.935C93.1361 179.735 93.3011 179.43 93.3011 179.02C93.3011 178.68 93.1511 178.41 92.8511 178.21C92.5511 178.01 92.1861 177.855 91.7561 177.745C91.3261 177.635 90.8961 177.515 90.4661 177.385C90.0361 177.245 89.6711 177.02 89.3711 176.71C89.0711 176.39 88.9211 175.975 88.9211 175.465C88.9211 174.855 89.1611 174.345 89.6411 173.935C90.1311 173.525 90.7461 173.32 91.4861 173.32C92.0961 173.32 92.6311 173.46 93.0911 173.74C93.5511 174.01 93.8911 174.38 94.1111 174.85L93.2861 175.33C92.9961 174.63 92.3961 174.28 91.4861 174.28C91.0561 174.28 90.6861 174.385 90.3761 174.595C90.0661 174.795 89.9111 175.085 89.9111 175.465ZM96.8743 171.7C96.7343 171.84 96.5643 171.91 96.3643 171.91C96.1643 171.91 95.9943 171.84 95.8543 171.7C95.7143 171.56 95.6443 171.39 95.6443 171.19C95.6443 170.99 95.7143 170.82 95.8543 170.68C95.9943 170.54 96.1643 170.47 96.3643 170.47C96.5643 170.47 96.7343 170.54 96.8743 170.68C97.0143 170.82 97.0843 170.99 97.0843 171.19C97.0843 171.39 97.0143 171.56 96.8743 171.7ZM95.8693 181V173.5H96.8593V181H95.8693ZM99.7402 175.465C99.7402 175.805 99.8902 176.075 100.19 176.275C100.49 176.475 100.855 176.63 101.285 176.74C101.715 176.85 102.145 176.975 102.575 177.115C103.005 177.245 103.37 177.47 103.67 177.79C103.97 178.1 104.12 178.51 104.12 179.02C104.12 179.66 103.865 180.18 103.355 180.58C102.855 180.98 102.205 181.18 101.405 181.18C100.685 181.18 100.07 181.02 99.5602 180.7C99.0602 180.38 98.7102 179.965 98.5102 179.455L99.3502 178.96C99.4902 179.35 99.7402 179.66 100.1 179.89C100.47 180.11 100.905 180.22 101.405 180.22C101.895 180.22 102.305 180.125 102.635 179.935C102.965 179.735 103.13 179.43 103.13 179.02C103.13 178.68 102.98 178.41 102.68 178.21C102.38 178.01 102.015 177.855 101.585 177.745C101.155 177.635 100.725 177.515 100.295 177.385C99.8652 177.245 99.5002 177.02 99.2002 176.71C98.9002 176.39 98.7502 175.975 98.7502 175.465C98.7502 174.855 98.9902 174.345 99.4702 173.935C99.9602 173.525 100.575 173.32 101.315 173.32C101.925 173.32 102.46 173.46 102.92 173.74C103.38 174.01 103.72 174.38 103.94 174.85L103.115 175.33C102.825 174.63 102.225 174.28 101.315 174.28C100.885 174.28 100.515 174.385 100.205 174.595C99.8952 174.795 99.7402 175.085 99.7402 175.465ZM113.272 171.28C112.542 171.22 111.997 171.345 111.637 171.655C111.287 171.965 111.112 172.48 111.112 173.2V173.5H113.272V174.46H111.112V181H110.122V174.46H108.847V173.5H110.122V173.2C110.122 172.22 110.392 171.48 110.932 170.98C111.482 170.47 112.262 170.25 113.272 170.32V171.28ZM120.157 180.055C119.397 180.805 118.467 181.18 117.367 181.18C116.267 181.18 115.332 180.805 114.562 180.055C113.802 179.295 113.422 178.36 113.422 177.25C113.422 176.14 113.802 175.21 114.562 174.46C115.332 173.7 116.267 173.32 117.367 173.32C118.467 173.32 119.397 173.7 120.157 174.46C120.927 175.21 121.312 176.14 121.312 177.25C121.312 178.36 120.927 179.295 120.157 180.055ZM115.267 179.365C115.837 179.935 116.537 180.22 117.367 180.22C118.197 180.22 118.897 179.935 119.467 179.365C120.037 178.785 120.322 178.08 120.322 177.25C120.322 176.42 120.037 175.72 119.467 175.15C118.897 174.57 118.197 174.28 117.367 174.28C116.537 174.28 115.837 174.57 115.267 175.15C114.697 175.72 114.412 176.42 114.412 177.25C114.412 178.08 114.697 178.785 115.267 179.365ZM123.959 174.745C124.419 173.835 125.209 173.38 126.329 173.38V174.34C125.649 174.34 125.084 174.54 124.634 174.94C124.184 175.34 123.959 175.97 123.959 176.83V181H122.969V173.5H123.959V174.745ZM134.946 173.32C135.856 173.32 136.571 173.6 137.091 174.16C137.621 174.71 137.886 175.455 137.886 176.395V181H136.896V176.395C136.896 175.725 136.716 175.205 136.356 174.835C136.006 174.465 135.506 174.28 134.856 174.28C134.136 174.28 133.551 174.51 133.101 174.97C132.651 175.42 132.426 176.12 132.426 177.07V181H131.436V170.5H132.426V174.67C132.986 173.77 133.826 173.32 134.946 173.32ZM140.805 171.7C140.665 171.84 140.495 171.91 140.295 171.91C140.095 171.91 139.925 171.84 139.785 171.7C139.645 171.56 139.575 171.39 139.575 171.19C139.575 170.99 139.645 170.82 139.785 170.68C139.925 170.54 140.095 170.47 140.295 170.47C140.495 170.47 140.665 170.54 140.805 170.68C140.945 170.82 141.015 170.99 141.015 171.19C141.015 171.39 140.945 171.56 140.805 171.7ZM139.8 181V173.5H140.79V181H139.8ZM149.341 173.5H150.331V180.7C150.331 181.78 149.961 182.63 149.221 183.25C148.481 183.87 147.596 184.18 146.566 184.18C144.806 184.18 143.621 183.57 143.011 182.35L143.881 181.855C144.331 182.765 145.226 183.22 146.566 183.22C147.426 183.22 148.101 182.99 148.591 182.53C149.091 182.08 149.341 181.47 149.341 180.7V179.53C148.651 180.63 147.641 181.18 146.311 181.18C145.241 181.18 144.326 180.8 143.566 180.04C142.816 179.28 142.441 178.35 142.441 177.25C142.441 176.15 142.816 175.22 143.566 174.46C144.326 173.7 145.241 173.32 146.311 173.32C147.641 173.32 148.651 173.87 149.341 174.97V173.5ZM144.286 179.365C144.856 179.935 145.556 180.22 146.386 180.22C147.216 180.22 147.916 179.935 148.486 179.365C149.056 178.785 149.341 178.08 149.341 177.25C149.341 176.42 149.056 175.72 148.486 175.15C147.916 174.57 147.216 174.28 146.386 174.28C145.556 174.28 144.856 174.57 144.286 175.15C143.716 175.72 143.431 176.42 143.431 177.25C143.431 178.08 143.716 178.785 144.286 179.365ZM155.937 173.32C156.847 173.32 157.562 173.6 158.082 174.16C158.612 174.71 158.877 175.455 158.877 176.395V181H157.887V176.395C157.887 175.725 157.707 175.205 157.347 174.835C156.997 174.465 156.497 174.28 155.847 174.28C155.127 174.28 154.542 174.51 154.092 174.97C153.642 175.42 153.417 176.12 153.417 177.07V181H152.427V170.5H153.417V174.67C153.977 173.77 154.817 173.32 155.937 173.32ZM164.541 181V170.05H165.531V181H164.541ZM171.097 173.32C172.207 173.32 173.102 173.715 173.782 174.505C174.472 175.285 174.817 176.21 174.817 177.28C174.817 177.39 174.807 177.545 174.787 177.745H168.202C168.302 178.505 168.622 179.11 169.162 179.56C169.712 180 170.387 180.22 171.187 180.22C171.757 180.22 172.247 180.105 172.657 179.875C173.077 179.635 173.392 179.325 173.602 178.945L174.472 179.455C174.142 179.985 173.692 180.405 173.122 180.715C172.552 181.025 171.902 181.18 171.172 181.18C169.992 181.18 169.032 180.81 168.292 180.07C167.552 179.33 167.182 178.39 167.182 177.25C167.182 176.13 167.547 175.195 168.277 174.445C169.007 173.695 169.947 173.32 171.097 173.32ZM171.097 174.28C170.317 174.28 169.662 174.515 169.132 174.985C168.612 175.445 168.302 176.045 168.202 176.785H173.797C173.697 175.995 173.392 175.38 172.882 174.94C172.372 174.5 171.777 174.28 171.097 174.28ZM181.499 173.5H182.549L179.474 181H178.274L175.199 173.5H176.249L178.874 179.965L181.499 173.5ZM186.917 173.32C188.027 173.32 188.922 173.715 189.602 174.505C190.292 175.285 190.637 176.21 190.637 177.28C190.637 177.39 190.627 177.545 190.607 177.745H184.022C184.122 178.505 184.442 179.11 184.982 179.56C185.532 180 186.207 180.22 187.007 180.22C187.577 180.22 188.067 180.105 188.477 179.875C188.897 179.635 189.212 179.325 189.422 178.945L190.292 179.455C189.962 179.985 189.512 180.405 188.942 180.715C188.372 181.025 187.722 181.18 186.992 181.18C185.812 181.18 184.852 180.81 184.112 180.07C183.372 179.33 183.002 178.39 183.002 177.25C183.002 176.13 183.367 175.195 184.097 174.445C184.827 173.695 185.767 173.32 186.917 173.32ZM186.917 174.28C186.137 174.28 185.482 174.515 184.952 174.985C184.432 175.445 184.122 176.045 184.022 176.785H189.617C189.517 175.995 189.212 175.38 188.702 174.94C188.192 174.5 187.597 174.28 186.917 174.28ZM192.212 181V170.05H193.202V181H192.212ZM205.338 180.055C204.578 180.805 203.648 181.18 202.548 181.18C201.448 181.18 200.513 180.805 199.743 180.055C198.983 179.295 198.603 178.36 198.603 177.25C198.603 176.14 198.983 175.21 199.743 174.46C200.513 173.7 201.448 173.32 202.548 173.32C203.648 173.32 204.578 173.7 205.338 174.46C206.108 175.21 206.493 176.14 206.493 177.25C206.493 178.36 206.108 179.295 205.338 180.055ZM200.448 179.365C201.018 179.935 201.718 180.22 202.548 180.22C203.378 180.22 204.078 179.935 204.648 179.365C205.218 178.785 205.503 178.08 205.503 177.25C205.503 176.42 205.218 175.72 204.648 175.15C204.078 174.57 203.378 174.28 202.548 174.28C201.718 174.28 201.018 174.57 200.448 175.15C199.878 175.72 199.593 176.42 199.593 177.25C199.593 178.08 199.878 178.785 200.448 179.365ZM213.257 173.5H214.307L211.232 181H210.032L206.957 173.5H208.007L210.632 179.965L213.257 173.5ZM218.675 173.32C219.785 173.32 220.68 173.715 221.36 174.505C222.05 175.285 222.395 176.21 222.395 177.28C222.395 177.39 222.385 177.545 222.365 177.745H215.78C215.88 178.505 216.2 179.11 216.74 179.56C217.29 180 217.965 180.22 218.765 180.22C219.335 180.22 219.825 180.105 220.235 179.875C220.655 179.635 220.97 179.325 221.18 178.945L222.05 179.455C221.72 179.985 221.27 180.405 220.7 180.715C220.13 181.025 219.48 181.18 218.75 181.18C217.57 181.18 216.61 180.81 215.87 180.07C215.13 179.33 214.76 178.39 214.76 177.25C214.76 176.13 215.125 175.195 215.855 174.445C216.585 173.695 217.525 173.32 218.675 173.32ZM218.675 174.28C217.895 174.28 217.24 174.515 216.71 174.985C216.19 175.445 215.88 176.045 215.78 176.785H221.375C221.275 175.995 220.97 175.38 220.46 174.94C219.95 174.5 219.355 174.28 218.675 174.28ZM224.96 174.745C225.42 173.835 226.21 173.38 227.33 173.38V174.34C226.65 174.34 226.085 174.54 225.635 174.94C225.185 175.34 224.96 175.97 224.96 176.83V181H223.97V173.5H224.96V174.745ZM234.087 173.5H235.137L232.062 181H230.862L227.787 173.5H228.837L231.462 179.965L234.087 173.5ZM237.338 171.7C237.198 171.84 237.028 171.91 236.828 171.91C236.628 171.91 236.458 171.84 236.318 171.7C236.178 171.56 236.108 171.39 236.108 171.19C236.108 170.99 236.178 170.82 236.318 170.68C236.458 170.54 236.628 170.47 236.828 170.47C237.028 170.47 237.198 170.54 237.338 170.68C237.478 170.82 237.548 170.99 237.548 171.19C237.548 171.39 237.478 171.56 237.338 171.7ZM236.333 181V173.5H237.323V181H236.333ZM242.889 173.32C243.999 173.32 244.894 173.715 245.574 174.505C246.264 175.285 246.609 176.21 246.609 177.28C246.609 177.39 246.599 177.545 246.579 177.745H239.994C240.094 178.505 240.414 179.11 240.954 179.56C241.504 180 242.179 180.22 242.979 180.22C243.549 180.22 244.039 180.105 244.449 179.875C244.869 179.635 245.184 179.325 245.394 178.945L246.264 179.455C245.934 179.985 245.484 180.405 244.914 180.715C244.344 181.025 243.694 181.18 242.964 181.18C241.784 181.18 240.824 180.81 240.084 180.07C239.344 179.33 238.974 178.39 238.974 177.25C238.974 176.13 239.339 175.195 240.069 174.445C240.799 173.695 241.739 173.32 242.889 173.32ZM242.889 174.28C242.109 174.28 241.454 174.515 240.924 174.985C240.404 175.445 240.094 176.045 239.994 176.785H245.589C245.489 175.995 245.184 175.38 244.674 174.94C244.164 174.5 243.569 174.28 242.889 174.28ZM256.921 173.5H257.941L255.631 181H254.551L252.616 174.955L250.681 181H249.601L247.291 173.5H248.311L250.156 179.725L252.121 173.5H253.111L255.076 179.725L256.921 173.5ZM259.76 175.465C259.76 175.805 259.91 176.075 260.21 176.275C260.51 176.475 260.875 176.63 261.305 176.74C261.735 176.85 262.165 176.975 262.595 177.115C263.025 177.245 263.39 177.47 263.69 177.79C263.99 178.1 264.14 178.51 264.14 179.02C264.14 179.66 263.885 180.18 263.375 180.58C262.875 180.98 262.225 181.18 261.425 181.18C260.705 181.18 260.09 181.02 259.58 180.7C259.08 180.38 258.73 179.965 258.53 179.455L259.37 178.96C259.51 179.35 259.76 179.66 260.12 179.89C260.49 180.11 260.925 180.22 261.425 180.22C261.915 180.22 262.325 180.125 262.655 179.935C262.985 179.735 263.15 179.43 263.15 179.02C263.15 178.68 263 178.41 262.7 178.21C262.4 178.01 262.035 177.855 261.605 177.745C261.175 177.635 260.745 177.515 260.315 177.385C259.885 177.245 259.52 177.02 259.22 176.71C258.92 176.39 258.77 175.975 258.77 175.465C258.77 174.855 259.01 174.345 259.49 173.935C259.98 173.525 260.595 173.32 261.335 173.32C261.945 173.32 262.48 173.46 262.94 173.74C263.4 174.01 263.74 174.38 263.96 174.85L263.135 175.33C262.845 174.63 262.245 174.28 261.335 174.28C260.905 174.28 260.535 174.385 260.225 174.595C259.915 174.795 259.76 175.085 259.76 175.465ZM266.905 180.91C266.745 181.07 266.55 181.15 266.32 181.15C266.09 181.15 265.895 181.07 265.735 180.91C265.575 180.75 265.495 180.555 265.495 180.325C265.495 180.095 265.575 179.9 265.735 179.74C265.895 179.58 266.09 179.5 266.32 179.5C266.55 179.5 266.745 179.58 266.905 179.74C267.065 179.9 267.145 180.095 267.145 180.325C267.145 180.555 267.065 180.75 266.905 180.91Z" fill="#666666"/>
<path d="M18.048 107.976V109.272C18.048 111.672 17.28 113.616 15.744 115.104C14.208 116.592 12.224 117.336 9.792 117.336C7.2 117.336 5.048 116.496 3.336 114.816C1.64 113.12 0.792 111.056 0.792 108.624C0.792 106.176 1.632 104.104 3.312 102.408C5.008 100.712 7.104 99.864 9.6 99.864C11.168 99.864 12.6 100.224 13.896 100.944C15.192 101.648 16.2 102.592 16.92 103.776L14.088 105.408C13.688 104.72 13.08 104.16 12.264 103.728C11.464 103.296 10.568 103.08 9.576 103.08C7.976 103.08 6.656 103.608 5.616 104.664C4.592 105.704 4.08 107.024 4.08 108.624C4.08 110.208 4.6 111.52 5.64 112.56C6.696 113.584 8.088 114.096 9.816 114.096C11.096 114.096 12.152 113.816 12.984 113.256C13.832 112.68 14.408 111.896 14.712 110.904H9.624V107.976H18.048ZM23.3558 107.064C23.6438 106.296 24.1158 105.72 24.7718 105.336C25.4438 104.952 26.1878 104.76 27.0038 104.76V108.216C26.0598 108.104 25.2118 108.296 24.4598 108.792C23.7238 109.288 23.3558 110.112 23.3558 111.264V117H20.2598V105H23.3558V107.064ZM38.5931 115.512C37.3611 116.728 35.8571 117.336 34.0811 117.336C32.3051 117.336 30.8011 116.728 29.5691 115.512C28.3531 114.28 27.7451 112.776 27.7451 111C27.7451 109.224 28.3531 107.728 29.5691 106.512C30.8011 105.28 32.3051 104.664 34.0811 104.664C35.8571 104.664 37.3611 105.28 38.5931 106.512C39.8251 107.728 40.4411 109.224 40.4411 111C40.4411 112.776 39.8251 114.28 38.5931 115.512ZM31.7531 113.376C32.3771 114 33.1531 114.312 34.0811 114.312C35.0091 114.312 35.7851 114 36.4091 113.376C37.0331 112.752 37.3451 111.96 37.3451 111C37.3451 110.04 37.0331 109.248 36.4091 108.624C35.7851 108 35.0091 107.688 34.0811 107.688C33.1531 107.688 32.3771 108 31.7531 108.624C31.1451 109.248 30.8411 110.04 30.8411 111C30.8411 111.96 31.1451 112.752 31.7531 113.376ZM55.6624 105H58.9504L55.1344 117H52.1824L49.9744 109.728L47.7664 117H44.8144L40.9984 105H44.2864L46.3264 112.368L48.5104 105H51.4384L53.6224 112.392L55.6624 105ZM80.0591 100.2L74.2991 110.448V117H71.0111V110.448L65.2751 100.2H69.0191L72.6671 107.208L76.3151 100.2H80.0591ZM89.3588 115.512C88.1268 116.728 86.6228 117.336 84.8468 117.336C83.0708 117.336 81.5668 116.728 80.3348 115.512C79.1188 114.28 78.5107 112.776 78.5107 111C78.5107 109.224 79.1188 107.728 80.3348 106.512C81.5668 105.28 83.0708 104.664 84.8468 104.664C86.6228 104.664 88.1268 105.28 89.3588 106.512C90.5908 107.728 91.2068 109.224 91.2068 111C91.2068 112.776 90.5908 114.28 89.3588 115.512ZM82.5188 113.376C83.1428 114 83.9188 114.312 84.8468 114.312C85.7748 114.312 86.5508 114 87.1748 113.376C87.7988 112.752 88.1108 111.96 88.1108 111C88.1108 110.04 87.7988 109.248 87.1748 108.624C86.5508 108 85.7748 107.688 84.8468 107.688C83.9188 107.688 83.1428 108 82.5188 108.624C81.9108 109.248 81.6068 110.04 81.6068 111C81.6068 111.96 81.9108 112.752 82.5188 113.376ZM101.305 105H104.401V117H101.305V115.656C100.553 116.776 99.3608 117.336 97.7288 117.336C96.4168 117.336 95.3288 116.896 94.4648 116.016C93.6168 115.136 93.1928 113.92 93.1928 112.368V105H96.2888V111.984C96.2888 112.784 96.5048 113.4 96.9368 113.832C97.3688 114.248 97.9448 114.456 98.6648 114.456C99.4648 114.456 100.105 114.208 100.585 113.712C101.065 113.216 101.305 112.472 101.305 111.48V105ZM110.332 107.064C110.62 106.296 111.092 105.72 111.748 105.336C112.42 104.952 113.164 104.76 113.98 104.76V108.216C113.036 108.104 112.188 108.296 111.436 108.792C110.7 109.288 110.332 110.112 110.332 111.264V117H107.236V105H110.332V107.064ZM132.087 108.288C133.559 109.136 134.295 110.416 134.295 112.128C134.295 113.552 133.791 114.72 132.783 115.632C131.775 116.544 130.535 117 129.063 117H121.935V100.2H128.559C129.999 100.2 131.207 100.648 132.183 101.544C133.175 102.424 133.671 103.552 133.671 104.928C133.671 106.32 133.143 107.44 132.087 108.288ZM128.559 103.296H125.247V106.992H128.559C129.071 106.992 129.495 106.816 129.831 106.464C130.183 106.112 130.359 105.672 130.359 105.144C130.359 104.616 130.191 104.176 129.855 103.824C129.519 103.472 129.087 103.296 128.559 103.296ZM129.063 113.904C129.623 113.904 130.087 113.72 130.455 113.352C130.823 112.968 131.007 112.488 131.007 111.912C131.007 111.352 130.823 110.888 130.455 110.52C130.087 110.136 129.623 109.944 129.063 109.944H125.247V113.904H129.063ZM144.5 105H147.596V117H144.5V115.656C143.748 116.776 142.556 117.336 140.924 117.336C139.612 117.336 138.524 116.896 137.66 116.016C136.812 115.136 136.388 113.92 136.388 112.368V105H139.484V111.984C139.484 112.784 139.7 113.4 140.132 113.832C140.564 114.248 141.14 114.456 141.86 114.456C142.66 114.456 143.3 114.208 143.78 113.712C144.26 113.216 144.5 112.472 144.5 111.48V105ZM153.194 108.408C153.194 108.728 153.402 108.992 153.818 109.2C154.25 109.392 154.77 109.568 155.378 109.728C155.986 109.872 156.594 110.064 157.202 110.304C157.81 110.528 158.322 110.912 158.738 111.456C159.17 112 159.386 112.68 159.386 113.496C159.386 114.728 158.922 115.68 157.994 116.352C157.082 117.008 155.938 117.336 154.562 117.336C152.098 117.336 150.418 116.384 149.522 114.48L152.21 112.968C152.562 114.008 153.346 114.528 154.562 114.528C155.666 114.528 156.218 114.184 156.218 113.496C156.218 113.176 156.002 112.92 155.57 112.728C155.154 112.52 154.642 112.336 154.034 112.176C153.426 112.016 152.818 111.816 152.21 111.576C151.602 111.336 151.082 110.96 150.65 110.448C150.234 109.92 150.026 109.264 150.026 108.48C150.026 107.296 150.458 106.368 151.322 105.696C152.202 105.008 153.29 104.664 154.586 104.664C155.562 104.664 156.45 104.888 157.25 105.336C158.05 105.768 158.682 106.392 159.146 107.208L156.506 108.648C156.122 107.832 155.482 107.424 154.586 107.424C154.186 107.424 153.85 107.512 153.578 107.688C153.322 107.864 153.194 108.104 153.194 108.408ZM162.913 103.56C162.401 103.56 161.953 103.376 161.569 103.008C161.201 102.624 161.017 102.176 161.017 101.664C161.017 101.152 161.201 100.704 161.569 100.32C161.953 99.936 162.401 99.744 162.913 99.744C163.441 99.744 163.889 99.936 164.257 100.32C164.641 100.704 164.833 101.152 164.833 101.664C164.833 102.176 164.641 102.624 164.257 103.008C163.889 103.376 163.441 103.56 162.913 103.56ZM161.377 117V105H164.473V117H161.377ZM173.979 104.664C175.291 104.664 176.371 105.104 177.219 105.984C178.083 106.864 178.515 108.08 178.515 109.632V117H175.419V110.016C175.419 109.216 175.203 108.608 174.771 108.192C174.339 107.76 173.763 107.544 173.043 107.544C172.243 107.544 171.603 107.792 171.123 108.288C170.643 108.784 170.403 109.528 170.403 110.52V117H167.307V105H170.403V106.344C171.155 105.224 172.347 104.664 173.979 104.664ZM183.774 112.272C184.19 113.776 185.318 114.528 187.158 114.528C188.342 114.528 189.238 114.128 189.846 113.328L192.342 114.768C191.158 116.48 189.414 117.336 187.11 117.336C185.126 117.336 183.534 116.736 182.334 115.536C181.134 114.336 180.534 112.824 180.534 111C180.534 109.192 181.126 107.688 182.31 106.488C183.494 105.272 185.014 104.664 186.87 104.664C188.63 104.664 190.078 105.272 191.214 106.488C192.366 107.704 192.942 109.208 192.942 111C192.942 111.4 192.902 111.824 192.822 112.272H183.774ZM183.726 109.872H189.846C189.67 109.056 189.302 108.448 188.742 108.048C188.198 107.648 187.574 107.448 186.87 107.448C186.038 107.448 185.35 107.664 184.806 108.096C184.262 108.512 183.902 109.104 183.726 109.872ZM197.491 108.408C197.491 108.728 197.699 108.992 198.115 109.2C198.547 109.392 199.067 109.568 199.675 109.728C200.283 109.872 200.891 110.064 201.499 110.304C202.107 110.528 202.619 110.912 203.035 111.456C203.467 112 203.683 112.68 203.683 113.496C203.683 114.728 203.219 115.68 202.291 116.352C201.379 117.008 200.235 117.336 198.859 117.336C196.395 117.336 194.715 116.384 193.819 114.48L196.507 112.968C196.859 114.008 197.643 114.528 198.859 114.528C199.963 114.528 200.515 114.184 200.515 113.496C200.515 113.176 200.299 112.92 199.867 112.728C199.451 112.52 198.939 112.336 198.331 112.176C197.723 112.016 197.115 111.816 196.507 111.576C195.899 111.336 195.379 110.96 194.947 110.448C194.531 109.92 194.323 109.264 194.323 108.48C194.323 107.296 194.755 106.368 195.619 105.696C196.499 105.008 197.587 104.664 198.883 104.664C199.859 104.664 200.747 104.888 201.547 105.336C202.347 105.768 202.979 106.392 203.443 107.208L200.803 108.648C200.419 107.832 199.779 107.424 198.883 107.424C198.483 107.424 198.147 107.512 197.875 107.688C197.619 107.864 197.491 108.104 197.491 108.408ZM207.897 108.408C207.897 108.728 208.105 108.992 208.521 109.2C208.953 109.392 209.473 109.568 210.081 109.728C210.689 109.872 211.297 110.064 211.905 110.304C212.513 110.528 213.025 110.912 213.441 111.456C213.873 112 214.089 112.68 214.089 113.496C214.089 114.728 213.625 115.68 212.697 116.352C211.785 117.008 210.641 117.336 209.265 117.336C206.801 117.336 205.121 116.384 204.225 114.48L206.913 112.968C207.265 114.008 208.049 114.528 209.265 114.528C210.369 114.528 210.921 114.184 210.921 113.496C210.921 113.176 210.705 112.92 210.273 112.728C209.857 112.52 209.345 112.336 208.737 112.176C208.129 112.016 207.521 111.816 206.913 111.576C206.305 111.336 205.785 110.96 205.353 110.448C204.937 109.92 204.729 109.264 204.729 108.48C204.729 107.296 205.161 106.368 206.025 105.696C206.905 105.008 207.993 104.664 209.289 104.664C210.265 104.664 211.153 104.888 211.953 105.336C212.753 105.768 213.385 106.392 213.849 107.208L211.209 108.648C210.825 107.832 210.185 107.424 209.289 107.424C208.889 107.424 208.553 107.512 208.281 107.688C208.025 107.864 207.897 108.104 207.897 108.408Z" fill="black"/>
<rect x="1" width="70" height="70" rx="15" fill="#F25822" fill-opacity="0.25"/>
<path d="M24.7778 25.7778V45.2222H47V25.7778H24.7778ZM23.3889 23H48.3889C48.7572 23 49.1105 23.1463 49.371 23.4068C49.6314 23.6673 49.7778 24.0205 49.7778 24.3889V46.6111C49.7778 46.9795 49.6314 47.3327 49.371 47.5932C49.1105 47.8537 48.7572 48 48.3889 48H23.3889C23.0205 48 22.6673 47.8537 22.4068 47.5932C22.1463 47.3327 22 46.9795 22 46.6111V24.3889C22 24.0205 22.1463 23.6673 22.4068 23.4068C22.6673 23.1463 23.0205 23 23.3889 23ZM39.7681 32.4347L37.2778 29.9444H44.2222V36.8889L41.7319 34.3986L36.3653 39.7653L33.4194 36.8194L29.4903 40.7472L27.5264 38.7833L33.4194 32.8903L36.3653 35.8375L39.7681 32.4347Z" fill="#F25822"/>
</svg>
