<svg width="100" height="100" viewBox="0 0 100 100" fill="none" xmlns="http://www.w3.org/2000/svg">
<circle cx="50" cy="50" r="50" fill="#BDE0BC"/>
<path d="M61.6667 36.6667H38.3333C37.0073 36.6667 35.7355 37.1935 34.7978 38.1312C33.8601 39.0688 33.3333 40.3406 33.3333 41.6667V58.3334C33.3333 59.6594 33.8601 60.9312 34.7978 61.8689C35.7355 62.8066 37.0073 63.3334 38.3333 63.3334H61.6667C62.9928 63.3334 64.2645 62.8066 65.2022 61.8689C66.1399 60.9312 66.6667 59.6594 66.6667 58.3334V41.6667C66.6667 40.3406 66.1399 39.0688 65.2022 38.1312C64.2645 37.1935 62.9928 36.6667 61.6667 36.6667ZM60.55 40L50 47.9167L39.45 40H60.55ZM61.6667 60H38.3333C37.8913 60 37.4674 59.8244 37.1548 59.5119C36.8423 59.1993 36.6667 58.7754 36.6667 58.3334V42.0834L49 51.3334C49.2885 51.5497 49.6394 51.6667 50 51.6667C50.3606 51.6667 50.7115 51.5497 51 51.3334L63.3333 42.0834V58.3334C63.3333 58.7754 63.1577 59.1993 62.8452 59.5119C62.5326 59.8244 62.1087 60 61.6667 60Z" fill="#149211"/>
</svg>
