<svg width="100" height="100" viewBox="0 0 100 100" fill="none" xmlns="http://www.w3.org/2000/svg">
<circle cx="50" cy="50" r="50" fill="#FFF3C9"/>
<path d="M51.6667 33.3333C51.2246 33.3333 50.8007 33.5089 50.4882 33.8215C50.1756 34.1341 50 34.558 50 35V48.3333C50 48.7754 50.1756 49.1993 50.4882 49.5119C50.8007 49.8244 51.2246 50 51.6667 50H65C65.442 50 65.866 49.8244 66.1785 49.5119C66.4911 49.1993 66.6667 48.7754 66.6667 48.3333C66.6667 44.3551 65.0863 40.5398 62.2733 37.7267C59.4602 34.9137 55.6449 33.3333 51.6667 33.3333ZM53.3333 46.6667V36.7833C55.827 37.1427 58.1374 38.2996 59.9189 40.0811C61.7004 41.8627 62.8573 44.173 63.2167 46.6667H53.3333Z" fill="#FFC700"/>
<path d="M64.7 53.4332C64.4932 53.3593 64.2739 53.327 64.0545 53.3381C63.8352 53.3493 63.6202 53.4036 63.422 53.4981C63.2238 53.5926 63.0461 53.7253 62.8993 53.8886C62.7526 54.052 62.6395 54.2427 62.5667 54.4499C61.8156 56.5731 60.5389 58.4715 58.8558 59.9679C57.1727 61.4643 55.1379 62.5099 52.9414 63.0073C50.7449 63.5047 48.4582 63.4376 46.2946 62.8123C44.131 62.187 42.1611 61.0238 40.5686 59.4313C38.9761 57.8388 37.8129 55.8689 37.1876 53.7053C36.5623 51.5417 36.4952 49.255 36.9926 47.0585C37.49 44.862 38.5357 42.8272 40.0321 41.1441C41.5285 39.461 43.4268 38.1843 45.55 37.4332C45.9677 37.2874 46.3104 36.9815 46.5026 36.583C46.6948 36.1845 46.7209 35.726 46.575 35.3082C46.4291 34.8905 46.1233 34.5479 45.7248 34.3556C45.3263 34.1634 44.8677 34.1374 44.45 34.2832C41.7951 35.2212 39.4211 36.8165 37.5495 38.9203C35.678 41.024 34.37 43.5677 33.7475 46.3138C33.1251 49.0598 33.2085 51.9189 33.9901 54.624C34.7716 57.3291 36.2257 59.7921 38.2168 61.7831C40.2078 63.7742 42.6708 65.2283 45.3759 66.0098C48.081 66.7914 50.9401 66.8748 53.6862 66.2524C56.4322 65.6299 58.9759 64.3219 61.0796 62.4504C63.1834 60.5789 64.7787 58.2048 65.7167 55.5499C65.8608 55.1343 65.8348 54.6786 65.6444 54.2821C65.4539 53.8856 65.1145 53.5805 64.7 53.4332Z" fill="#FFC700"/>
</svg>
